<?xml version="1.0" encoding="UTF-8"?>
<svg id="Capa_1" xmlns="http://www.w3.org/2000/svg" version="1.1" viewBox="0 0 138.7 148.7">
  <!-- Generator: Adobe Illustrator 29.4.0, SVG Export Plug-In . SVG Version: 2.1.0 Build 152)  -->
  <defs>
    <style>
      .st0 {
        fill: #fff;
        fill-rule: evenodd;
      }
    </style>
  </defs>
  <g id="Layer_1">
    <g>
      <g>
        <path class="st0" d="M26.4,71.8c-1,0-1.9-.8-1.9-1.9v-12.2c0-1,.8-1.9,1.9-1.9s1.9.8,1.9,1.9v12.2c0,1-.8,1.9-1.9,1.9Z"/>
        <path class="st0" d="M26.4,110.2c-1,0-1.9-.8-1.9-1.9v-12.2c0-1,.8-1.9,1.9-1.9s1.9.8,1.9,1.9v12.2c0,1-.8,1.9-1.9,1.9Z"/>
        <path class="st0" d="M115.8,134H30.7c-3.4,0-6.1-2.7-6.1-6.1v-12.6c0-1,.8-1.9,1.9-1.9s1.9.8,1.9,1.9v12.6c0,1.3,1,2.3,2.3,2.3h85.2c1.2,0,2.2-1,2.2-2.2V18.9c0-1.2-1-2.2-2.2-2.2H30.7c-1.3,0-2.3,1-2.3,2.3v12.6c0,1-.8,1.9-1.9,1.9s-1.9-.8-1.9-1.9v-12.6c0-3.4,2.7-6.1,6.1-6.1h85.2c3.3,0,6,2.7,6,6v109c0,3.3-2.7,6-6,6Z"/>
        <path class="st0" d="M26.4,91c-1,0-1.9-.8-1.9-1.9v-12.2c0-1,.8-1.9,1.9-1.9s1.9.8,1.9,1.9v12.2c0,1-.8,1.9-1.9,1.9Z"/>
        <path class="st0" d="M26.4,52.6c-1,0-1.9-.8-1.9-1.9v-12.2c0-1,.8-1.9,1.9-1.9s1.9.8,1.9,1.9v12.2c0,1-.8,1.9-1.9,1.9h0Z"/>
        <g>
          <path class="st0" d="M29.2,40.5h-5.4c-3,0-5.4-2.4-5.4-5.4s2.4-5.4,5.4-5.4h5.4c3,0,5.4,2.4,5.4,5.4s-2.4,5.4-5.4,5.4ZM23.7,33.5c-.9,0-1.6.7-1.6,1.6s.7,1.6,1.6,1.6h5.4c.9,0,1.6-.7,1.6-1.6s-.7-1.6-1.6-1.6h-5.4Z"/>
          <path class="st0" d="M29.2,59.7h-5.4c-3,0-5.4-2.4-5.4-5.4s2.4-5.4,5.4-5.4h5.4c3,0,5.4,2.4,5.4,5.4s-2.4,5.4-5.4,5.4ZM23.7,52.6c-.9,0-1.6.7-1.6,1.6s.7,1.6,1.6,1.6h5.4c.9,0,1.6-.7,1.6-1.6s-.7-1.6-1.6-1.6h-5.4Z"/>
          <path class="st0" d="M29.2,78.8h-5.4c-3,0-5.4-2.4-5.4-5.4s2.4-5.4,5.4-5.4h5.4c3,0,5.4,2.4,5.4,5.4s-2.4,5.4-5.4,5.4ZM23.7,71.8c-.9,0-1.6.7-1.6,1.6s.7,1.6,1.6,1.6h5.4c.9,0,1.6-.7,1.6-1.6s-.7-1.6-1.6-1.6h-5.4Z"/>
          <path class="st0" d="M29.2,98h-5.4c-3,0-5.4-2.4-5.4-5.4s2.4-5.4,5.4-5.4h5.4c3,0,5.4,2.4,5.4,5.4s-2.4,5.4-5.4,5.4ZM23.7,91c-.9,0-1.6.7-1.6,1.6s.7,1.6,1.6,1.6h5.4c.9,0,1.6-.7,1.6-1.6s-.7-1.6-1.6-1.6h-5.4Z"/>
          <path class="st0" d="M29.2,117.2h-5.4c-3,0-5.4-2.4-5.4-5.4s2.4-5.4,5.4-5.4h5.4c3,0,5.4,2.4,5.4,5.4s-2.4,5.4-5.4,5.4ZM23.7,110.2c-.9,0-1.6.7-1.6,1.6s.7,1.6,1.6,1.6h5.4c.9,0,1.6-.7,1.6-1.6s-.7-1.6-1.6-1.6h-5.4Z"/>
        </g>
      </g>
      <g>
        <g>
          <path class="st0" d="M93.6,104.8h-38.2c-1,0-1.9-.8-1.9-1.9s.8-1.9,1.9-1.9h38.2c1,0,1.9.8,1.9,1.9s-.8,1.9-1.9,1.9Z"/>
          <path class="st0" d="M93.6,115.7h-38.2c-1,0-1.9-.8-1.9-1.9s.8-1.9,1.9-1.9h38.2c1,0,1.9.8,1.9,1.9s-.8,1.9-1.9,1.9Z"/>
        </g>
        <g>
          <path class="st0" d="M74.5,88.3c-4,0-7.9-.8-11.6-2.3-3.5-1.5-6.7-3.6-9.5-6.4s-4.9-5.9-6.4-9.5c-1.6-3.7-2.3-7.6-2.3-11.6s.8-7.9,2.3-11.6c1.5-3.5,3.6-6.7,6.4-9.5s5.9-4.9,9.5-6.4c3.7-1.6,7.6-2.3,11.6-2.3s7.9.8,11.6,2.3c3.5,1.5,6.7,3.6,9.5,6.4s4.9,5.9,6.4,9.5c1.6,3.7,2.3,7.6,2.3,11.6s-.8,7.9-2.3,11.6c-1.5,3.5-3.6,6.7-6.4,9.5s-5.9,4.9-9.5,6.4c-3.7,1.6-7.6,2.3-11.6,2.3h0ZM74.5,32.6c-14.3,0-26,11.7-26,26s11.7,26,26,26,26-11.7,26-26-11.7-26-26-26h0Z"/>
          <g>
            <path class="st0" d="M74.5,79.4c-2.7,0-4.8-2.2-4.8-4.8v-19.2c0-2.7,2.2-4.8,4.8-4.8s4.8,2.2,4.8,4.8v19.2c0,2.7-2.2,4.8-4.8,4.8h0ZM74.5,54.4c-.6,0-1,.5-1,1v19.2c0,.6.5,1,1,1s1-.5,1-1v-19.2c0-.6-.5-1-1-1h0Z"/>
            <path class="st0" d="M74.5,47.3c-2.7,0-4.8-2.2-4.8-4.8s2.2-4.8,4.8-4.8,4.8,2.2,4.8,4.8c0,2.7-2.2,4.8-4.8,4.8h0ZM74.5,41.4c-.6,0-1,.5-1,1s.5,1,1,1,1-.5,1-1c0-.6-.5-1-1-1h0Z"/>
          </g>
        </g>
      </g>
    </g>
  </g>
</svg>