<?xml version="1.0" encoding="UTF-8"?>
<svg id="Capa_1" xmlns="http://www.w3.org/2000/svg" version="1.1" viewBox="0 0 138.7 148.7">
  <!-- Generator: Adobe Illustrator 29.4.0, SVG Export Plug-In . SVG Version: 2.1.0 Build 152)  -->
  <defs>
    <style>
      .st0 {
        fill: #fff;
      }
    </style>
  </defs>
  <path class="st0" d="M83.3,92.5c0,5.7-4.5,10.5-10.2,10.8h-1.6v8.3c0,1.2-1,2.3-2.3,2.3s-2.3-1-2.3-2.3v-8.3h-9.6c-1.2,0-2.3-1-2.3-2.3s1-2.3,2.3-2.3h15.1c3.5,0,6.3-2.8,6.3-6.3s-2.8-6.3-6.3-6.3h-6.6c-6,0-10.8-4.8-10.8-10.8s4.5-10.5,10.2-10.8h1.6v-8.3c0-1.2,1-2.3,2.3-2.3s2.3,1,2.3,2.3v8.2h9.6c1.2,0,2.3,1,2.3,2.3s-1,2.3-2.3,2.3h-15.1c-3.5,0-6.3,2.8-6.3,6.3s2.8,6.3,6.3,6.3h6.6c6,0,10.8,4.8,10.8,10.8Z"/>
  <path class="st0" d="M113.8,20.3H24.6c-7,0-12.8,5.7-12.8,12.8v83.7c0,7,5.7,12.8,12.8,12.8h89.2c7,0,12.8-5.7,12.8-12.8V33.1c0-7-5.7-12.8-12.8-12.8ZM122.1,116.8c0,4.5-3.7,8.3-8.3,8.3H24.6c-4.5,0-8.2-3.7-8.2-8.3V43.2h105.7v73.6ZM122.1,38.7H16.4v-5.6c0-4.5,3.7-8.3,8.2-8.3h89.2c4.5,0,8.3,3.7,8.3,8.3v5.6Z"/>
</svg>