<?xml version="1.0" encoding="UTF-8"?>
<svg id="Capa_1" xmlns="http://www.w3.org/2000/svg" version="1.1" viewBox="0 0 138.7 148.7">
  <!-- Generator: Adobe Illustrator 29.4.0, SVG Export Plug-In . SVG Version: 2.1.0 Build 152)  -->
  <defs>
    <style>
      .st0 {
        fill: #fff;
      }
    </style>
  </defs>
  <path class="st0" d="M88.5,21.8H26.9c-3.4,0-6.3,2.8-6.3,6.3v67c0,3.4,2.8,6.3,6.3,6.3h8.2v8.2c0,3.4,2.8,6.3,6.3,6.3h8.2v8.2c0,3.4,2.8,6.3,6.3,6.3h42.7c.2,0,.5,0,.7-.1,0,0,0,0,0,0,.2,0,.4-.2.6-.4l23.2-23.2c.4-.3.7-.9.7-1.4v-48.1c0-3.4-2.8-6.3-6.3-6.3h-8.2v-8.2c0-3.4-2.8-6.3-6.3-6.3h-8.2v-8.2c0-3.4-2.8-6.3-6.3-6.3ZM26.9,97.7c-1.5,0-2.6-1.2-2.6-2.6V28.1c0-1.5,1.2-2.6,2.6-2.6h61.6c1.5,0,2.6,1.2,2.6,2.6v8.2h-49.8c-3.4,0-6.3,2.8-6.3,6.3v55.2h-8.2ZM100.2,124v-17.2h17.1l-8.2,8.2-8.9,8.9h0ZM119.9,56.9v46.3h-21.5c-1,0-1.8.8-1.8,1.8v21.5h-40.9c-1.5,0-2.6-1.2-2.6-2.6V56.9c0-1.5,1.2-2.6,2.6-2.6h61.6c1.5,0,2.6,1.2,2.6,2.6h0ZM105.5,42.5v8.2h-49.8c-3.4,0-6.3,2.8-6.3,6.3v55.2h-8.2c-1.5,0-2.6-1.2-2.6-2.6V42.5c0-1.5,1.2-2.6,2.6-2.6h61.6c1.5,0,2.6,1.2,2.6,2.6Z"/>
  <path class="st0" d="M62.9,70.2c0,1,.8,1.8,1.8,1.8h43.6c1,0,1.8-.8,1.8-1.8s-.8-1.8-1.8-1.8h-43.6c-1,0-1.8.8-1.8,1.8Z"/>
  <path class="st0" d="M108.3,80.2h-43.6c-1,0-1.8.8-1.8,1.8s.8,1.8,1.8,1.8h43.6c1,0,1.8-.8,1.8-1.8s-.8-1.8-1.8-1.8Z"/>
  <path class="st0" d="M108.3,92h-43.6c-1,0-1.8.8-1.8,1.8s.8,1.8,1.8,1.8h43.6c1,0,1.8-.8,1.8-1.8s-.8-1.8-1.8-1.8Z"/>
  <path class="st0" d="M90,103.7h-25.3c-1,0-1.8.8-1.8,1.8s.8,1.8,1.8,1.8h25.3c1,0,1.8-.8,1.8-1.8s-.8-1.8-1.8-1.8Z"/>
</svg>