<?xml version="1.0" encoding="UTF-8"?>
<svg id="Capa_1" xmlns="http://www.w3.org/2000/svg" version="1.1" viewBox="0 0 106.39 70.94">
  <!-- Generator: Adobe Illustrator 29.4.0, SVG Export Plug-In . SVG Version: 2.1.0 Build 152)  -->
  <defs>
    <style>
      .st0 {
        fill: #f0f0f0;
      }

      .st0, .st1, .st2 {
        fill-rule: evenodd;
      }

      .st1 {
        fill: #f90805;
      }

      .st2 {
        fill: #0437a0;
      }
    </style>
  </defs>
  <path class="st2" d="M24.55,56.74l-20.36,11.79c1.89,1.52,4.3,2.41,6.93,2.41h84.14c2.63,0,5.04-.89,6.93-2.41,2.56-2.04,4.19-5.19,4.19-8.71v-3.08H24.55ZM49.13,28.37l12.27,7.12-12.27,7.08h57.25v-14.2h-57.25ZM102.2,2.45h-.04c-1.89-1.52-4.26-2.45-6.9-2.45H11.12c-2.63,0-5.04.93-6.93,2.45l20.36,11.75h81.84v-3.08c0-3.52-1.63-6.67-4.19-8.68Z"/>
  <path class="st1" d="M61.41,35.49l-12.27,7.08-24.55,14.17h-.04l-20.36,11.79c-2.56-2.04-4.19-5.19-4.19-8.71V11.12C0,7.6,1.63,4.45,4.19,2.45l20.36,11.75h.04l24.55,14.17,12.27,7.12Z"/>
  <path class="st0" d="M49.13,42.57l-24.55,14.17h81.8v-14.17h-57.25ZM30.59,32.19h-7.75l-2.37-7.34-2.41,7.34h-7.71l6.27,4.52-2.41,7.38,6.27-4.56,6.27,4.56-2.41-7.38,6.27-4.52ZM24.59,14.2l24.55,14.17h57.25v-14.17H24.59Z"/>
</svg>