<?xml version="1.0" encoding="UTF-8"?>
<svg id="Capa_1" xmlns="http://www.w3.org/2000/svg" version="1.1" viewBox="0 0 106.4 70.9">
  <!-- Generator: Adobe Illustrator 29.4.0, SVG Export Plug-In . SVG Version: 2.1.0 Build 152)  -->
  <defs>
    <style>
      .st0 {
        fill: #202b50;
      }

      .st1 {
        fill: #d9151c;
      }

      .st2 {
        fill: #f0f0f0;
      }
    </style>
  </defs>
  <g>
    <path class="st1" d="M106.3,11v24.5h-53V0h42.1c6,0,10.9,4.9,10.9,10.9Z"/>
    <path class="st0" d="M53.3,35.5v35.3H11C5,70.9.1,66,.1,59.9v-24.4h53.1Z"/>
    <path class="st2" d="M.1,11v24.5h53.1V0H11C5,0,.1,5,.1,11Z"/>
    <path class="st2" d="M53.3,35.5v35.3h42.1c6,0,10.9-4.9,10.9-10.9v-24.4h-53Z"/>
  </g>
  <g>
    <polygon class="st0" points="24 15.3 26.1 8.7 28.3 15.3 35.5 15.3 29.7 19.6 31.9 26.4 26.2 22.3 20.3 26.4 22.5 19.6 16.7 15.3 24 15.3"/>
    <polygon class="st1" points="78.1 51.4 80.2 44.8 82.4 51.4 89.7 51.4 83.9 55.7 86.1 62.5 80.3 58.4 74.5 62.5 76.7 55.7 70.9 51.4 78.1 51.4"/>
  </g>
</svg>