<?xml version="1.0" encoding="UTF-8"?>
<svg id="Capa_1" xmlns="http://www.w3.org/2000/svg" version="1.1" viewBox="0 0 106.4 70.94">
  <!-- Generator: Adobe Illustrator 29.4.0, SVG Export Plug-In . SVG Version: 2.1.0 Build 152)  -->
  <defs>
    <style>
      .st0 {
        fill: #0f33af;
      }

      .st1 {
        fill: #26b516;
      }

      .st2 {
        fill: #47b71d;
      }

      .st3 {
        fill: #fff;
      }

      .st4 {
        fill: #fff200;
      }
    </style>
  </defs>
  <path class="st2" d="M97.32,35.47l-38.24,24.41c-3.59,2.29-8.18,2.29-11.77,0l-23.8-15.19c-6.73-4.3-6.73-14.13,0-18.43l23.8-15.19c3.59-2.29,8.18-2.29,11.77,0l38.24,24.41h0ZM95.47,0H10.94C4.89,0,0,4.89,0,10.94v49.05c0,6.05,4.89,10.94,10.94,10.94h84.53c6.03,0,10.94-4.89,10.94-10.94V10.94c0-6.05-4.91-10.94-10.94-10.94Z"/>
  <path class="st4" d="M97.32,35.47l-44.13,28.16L9.08,35.47,53.19,7.31l44.13,28.16h0ZM35.36,30.89c-.38,1.46-.57,3-.57,4.58,0,10.17,8.24,18.41,18.41,18.41,8.25,0,15.24-5.43,17.58-12.91h0c.29-.92.51-1.88.65-2.86.12-.86.19-1.75.19-2.64,0-10.17-8.24-18.41-18.41-18.41-7.53,0-14.01,4.52-16.86,11-.4.91-.73,1.85-.98,2.83h0Z"/>
  <polygon class="st3" points="34.26 31.12 34.26 31.12 34.26 31.12 34.26 31.12"/>
  <path class="st0" d="M35.36,30.89c-.38,1.46-.57,3-.57,4.58,0,10.17,8.24,18.41,18.41,18.41,8.25,0,15.24-5.43,17.58-12.91-1.99-1.84-7.9-6.74-16.94-9.26-8.4-2.26-15.79-1.34-18.48-.82h0ZM54.51,29.21c9.15,2.59,14.36,6.69,16.91,8.9.12-.86.19-1.75.19-2.64,0-10.17-8.24-18.41-18.41-18.41-7.53,0-14.01,4.52-16.86,11,2.38-.38,9.77-1.23,18.17,1.16h0Z"/>
  <path class="st3" d="M54.51,29.21c-8.4-2.38-15.79-1.54-18.17-1.16-.4.91-.73,1.85-.98,2.83,2.69-.52,10.08-1.44,18.48.82,9.04,2.51,14.95,7.42,16.94,9.26.29-.92.51-1.88.65-2.86-2.56-2.21-7.77-6.3-16.91-8.9h0Z"/>
  <path class="st1" d="M37.37,28.31c.13-.02.25,0,.36.04.11.04.21.1.29.18.08.08.15.18.21.3.05.12.09.24.1.38.01.14,0,.26-.03.37-.03.11-.08.2-.15.28-.07.08-.15.14-.25.19-.1.05-.21.08-.33.1-.12.02-.24.01-.34-.01-.11-.02-.2-.07-.29-.13-.08-.06-.15-.14-.21-.24-.06-.1-.09-.21-.11-.35-.02-.14-.01-.27.01-.4.03-.13.08-.24.14-.35.07-.1.15-.19.26-.25.1-.06.22-.11.34-.12h0ZM70.57,37.88c-.06-.11-.14-.2-.24-.28-.1-.08-.21-.13-.32-.16-.11-.03-.23-.03-.34,0-.11.02-.22.07-.32.15-.1.07-.2.17-.28.29-.08.12-.14.24-.18.36-.03.12-.05.24-.04.36.01.12.04.23.1.33.05.1.13.2.23.27.1.08.2.13.31.16.11.03.22.03.33,0,.11-.02.22-.07.32-.13.11-.07.2-.16.29-.27.09-.12.15-.23.19-.36.04-.12.05-.25.04-.37-.01-.12-.04-.24-.1-.34h0ZM70.31,38.49h0c-.03.08-.07.16-.14.25-.06.08-.13.15-.2.2-.07.05-.14.08-.21.1-.07.02-.14.02-.21,0-.07-.02-.13-.05-.19-.09-.06-.05-.11-.1-.14-.17-.03-.06-.05-.13-.05-.21,0-.07,0-.15.04-.23.03-.08.07-.16.13-.25.06-.08.12-.15.19-.2.07-.05.14-.08.21-.1.07-.02.14-.02.21,0,.07.02.13.05.2.09.06.05.11.1.14.17.03.06.05.14.06.21,0,.08,0,.15-.04.24h0ZM68.64,36.35c-.05-.08-.13-.15-.21-.21-.08-.06-.17-.1-.25-.12-.08-.02-.16-.03-.24-.02-.07,0-.14.03-.21.07-.06.04-.11.09-.16.16-.04.06-.07.12-.08.18-.01.06,0,.12,0,.19.02.06.05.13.09.2.04.07.1.14.17.22.06.07.12.13.16.18.04.05.07.1.09.14.02.04.03.08.03.11,0,.03-.01.06-.03.1-.02.03-.05.05-.08.07-.03.01-.07.02-.1.02-.04,0-.08,0-.12-.03-.04-.02-.09-.04-.13-.07-.05-.03-.09-.07-.12-.11-.03-.04-.06-.09-.07-.14-.02-.05-.02-.1-.01-.16,0-.05.02-.11.06-.17-.11-.08-.16-.11-.27-.19-.05.09-.09.18-.11.27s-.02.18,0,.27c.02.09.06.18.12.26.06.08.14.17.24.24.08.06.16.1.25.12.08.03.16.03.24.03.08,0,.15-.03.22-.07.07-.04.13-.09.18-.17.04-.06.07-.12.08-.18.01-.06.02-.11.01-.17,0-.05-.02-.11-.05-.16-.02-.05-.05-.1-.08-.15-.03-.05-.07-.1-.11-.14-.04-.05-.08-.09-.12-.13-.04-.05-.08-.09-.11-.13s-.05-.07-.06-.1c-.01-.03-.02-.06-.02-.08,0-.02,0-.05.02-.07.04-.06.09-.08.16-.08.07,0,.15.03.24.1.19.13.23.3.13.49.11.08.16.12.27.19.05-.08.09-.17.1-.26.02-.09.01-.18,0-.26-.02-.08-.06-.16-.11-.24h0ZM66.78,35.09c-.06-.07-.13-.14-.22-.19-.09-.05-.17-.09-.26-.11-.08-.02-.16-.03-.24-.01s-.14.04-.2.08c-.06.04-.11.09-.15.16-.04.06-.06.12-.07.18,0,.06,0,.12.02.18.02.06.05.13.1.19.05.07.11.14.18.21.07.06.12.12.16.17.04.05.08.09.1.13.02.04.03.07.03.11s-.01.06-.03.1c-.02.03-.05.06-.08.07-.03.02-.06.02-.1.02s-.08,0-.12-.02c-.04-.01-.09-.04-.13-.07-.05-.03-.09-.07-.13-.11-.03-.04-.06-.09-.08-.13-.02-.05-.02-.1-.02-.15,0-.05.02-.11.05-.17-.11-.07-.17-.11-.28-.18-.05.09-.08.18-.1.27-.02.09-.01.18.01.27.02.09.06.17.13.25.06.08.15.16.26.23.08.05.17.09.25.11.09.02.17.03.25.02.08-.01.15-.03.22-.08.07-.04.12-.1.17-.17.04-.06.06-.12.08-.18.01-.06.01-.11,0-.17,0-.05-.03-.11-.05-.16-.03-.05-.06-.1-.09-.14-.03-.05-.07-.09-.11-.13-.04-.04-.08-.08-.12-.12-.05-.04-.08-.08-.11-.12-.03-.04-.05-.07-.07-.1-.02-.03-.02-.06-.02-.08,0-.02,0-.05.02-.07.03-.06.09-.08.16-.09.07,0,.15.03.25.09.19.12.24.28.15.48.11.07.17.11.28.18.05-.09.08-.17.09-.26.01-.09,0-.17-.02-.25-.02-.08-.07-.16-.12-.23h0ZM64.96,34.38c.06-.11.1-.17.16-.28-.47-.28-.71-.41-1.19-.67-.35.65-.53.94-.88,1.58.48.27.72.41,1.19.69.06-.11.1-.16.16-.27-.36-.22-.54-.32-.9-.53.09-.16.14-.24.23-.41.33.19.49.28.82.47.06-.11.1-.16.16-.27-.33-.19-.49-.29-.82-.47.08-.14.12-.21.2-.36.36.2.54.3.89.51h0ZM62.98,33.06s-.04-.08-.06-.11c-.03-.03-.05-.06-.09-.09-.03-.03-.07-.05-.11-.07-.04-.02-.08-.04-.13-.07-.29-.15-.44-.22-.74-.36-.32.64-.48.95-.81,1.59.12.06.18.09.3.14.13-.26.2-.38.33-.64.13.06.19.1.32.16.03.02.06.04.09.06.02.03.04.05.06.08.01.03.02.06.03.1,0,.03,0,.07,0,.1-.03.2-.05.3-.08.51.13.07.19.1.32.17.03-.22.05-.34.08-.56.02-.13-.04-.32-.04-.33,0,0,.2-.01.28-.06.09-.04.15-.11.21-.21.02-.03.03-.07.04-.1.01-.04.02-.07.02-.11,0-.04,0-.08,0-.11,0-.04-.01-.08-.03-.11h0ZM62.64,33.34h0s-.04.07-.07.09c-.03.02-.06.03-.09.04-.03,0-.07,0-.11-.01-.04-.01-.09-.03-.14-.06-.16-.08-.24-.12-.41-.2.09-.17.13-.25.22-.42.18.08.26.13.44.22.09.05.16.1.18.16.03.06.02.12-.02.19h0ZM60.72,31.83c-.07-.07-.16-.12-.26-.16-.12-.05-.24-.08-.36-.08-.12,0-.23.02-.33.06-.1.04-.2.11-.28.2-.09.09-.16.19-.21.32-.05.13-.08.25-.09.37,0,.12,0,.23.05.33.04.1.1.19.18.27.08.08.18.15.29.2.1.04.19.07.28.08.09,0,.17,0,.25-.02,0,.05,0,.08-.02.13.09.04.14.06.23.1.17-.35.25-.52.42-.86-.28-.13-.43-.19-.71-.32-.05.11-.08.17-.13.28.16.07.24.11.41.18-.03.07-.05.1-.08.17-.08.04-.16.06-.25.06-.09,0-.18-.02-.28-.07-.07-.03-.13-.07-.18-.12-.05-.05-.08-.11-.1-.18-.02-.07-.03-.14-.02-.22,0-.08.03-.16.07-.25.04-.09.09-.16.14-.23.06-.06.11-.11.18-.14.06-.03.13-.04.2-.04.07,0,.14.02.22.05.06.03.11.06.16.09.04.04.08.07.1.12.02.04.04.09.04.14,0,.05,0,.1-.02.15.13.06.19.08.32.14.04-.09.05-.18.04-.27,0-.09-.03-.17-.07-.25-.04-.08-.1-.15-.17-.22h0ZM58.58,31.01c-.09-.08-.19-.14-.31-.18-.12-.04-.24-.06-.36-.06-.12,0-.23.03-.33.08-.1.05-.19.12-.27.21-.08.09-.14.2-.19.33-.05.13-.07.25-.07.37,0,.12.02.23.07.33.04.1.11.19.19.26.08.08.18.14.3.18.12.04.23.06.34.05.11,0,.22-.03.32-.08.1-.05.19-.12.27-.2.08-.09.15-.2.2-.32.05-.13.08-.25.08-.37,0-.12-.02-.23-.06-.33-.04-.1-.11-.19-.19-.27h0ZM58.44,31.86h0c-.04.09-.08.17-.13.23s-.11.11-.17.14c-.06.03-.13.05-.2.06-.07,0-.14,0-.21-.03-.07-.03-.13-.06-.18-.11-.05-.05-.09-.1-.11-.17-.02-.07-.04-.14-.03-.22,0-.08.02-.17.05-.26.03-.09.07-.17.13-.23.05-.06.11-.11.17-.15.06-.03.13-.05.2-.06.07,0,.14,0,.22.03.07.03.13.06.18.11.05.05.09.11.11.17.02.07.03.14.03.22,0,.08-.02.17-.06.26h0ZM56.53,30.35s-.05-.07-.08-.09c-.03-.03-.06-.05-.1-.07-.04-.02-.08-.04-.12-.05-.04-.01-.09-.03-.13-.04-.32-.1-.47-.14-.79-.23-.2.68-.3,1.02-.5,1.7.13.04.19.05.31.09.08-.27.12-.41.21-.68.14.04.21.06.34.1.04.01.07.03.1.05.03.02.05.04.07.07.02.03.04.06.05.09.01.03.02.07.02.1,0,.2,0,.3.01.51.13.04.2.06.34.11,0-.22,0-.33-.02-.56,0-.13-.1-.3-.09-.31,0,0,.19-.05.27-.1.07-.06.13-.14.16-.24.01-.04.02-.07.02-.11,0-.04,0-.07,0-.11,0-.04-.01-.07-.02-.11-.01-.04-.03-.07-.05-.1h0ZM56.24,30.67h0s-.03.07-.05.1c-.02.03-.05.04-.08.05-.03,0-.07.01-.11,0-.04,0-.1-.02-.15-.03-.17-.05-.26-.08-.43-.13.05-.18.08-.27.13-.45.19.06.28.08.47.14.1.03.17.07.21.12.04.05.04.11.02.19h0ZM54.35,29.64s-.08-.07-.14-.1c-.05-.03-.11-.05-.17-.08-.06-.02-.12-.04-.19-.05-.3-.07-.44-.1-.74-.17-.17.69-.26,1.03-.43,1.72.14.03.21.05.34.08.07-.26.1-.39.17-.65.15.03.23.05.38.09.24.06.43.05.57,0,.15-.06.25-.18.3-.36.02-.07.03-.13.02-.19,0-.06-.02-.11-.04-.16-.02-.05-.05-.09-.09-.13h0ZM54.09,30.03h0s-.03.07-.05.1c-.02.03-.05.05-.09.06-.03.01-.07.02-.12.02-.05,0-.1,0-.17-.02-.16-.04-.24-.05-.39-.09.05-.19.08-.29.13-.48.16.03.23.05.39.09.05.01.09.03.14.04.04.02.08.04.11.06.03.02.05.05.06.09.01.03.01.08,0,.13h0ZM50.59,30.53c-.5-.09-.75-.13-1.25-.21.1-.62.15-.94.25-1.56.51.08.76.12,1.26.21-.02.11-.03.16-.05.27-.37-.07-.56-.1-.94-.16-.02.14-.04.21-.06.35.35.05.52.08.87.15-.02.11-.03.16-.05.26-.34-.06-.52-.09-.86-.15-.03.16-.04.24-.07.4.38.06.57.09.95.16-.02.11-.03.16-.05.27h0ZM47.3,30.05c-.13-.01-.19-.02-.31-.03.04-.44.06-.66.1-1.11-.19.43-.29.65-.48,1.07-.11,0-.16-.02-.27-.03-.11-.45-.17-.68-.3-1.14-.03.45-.04.68-.08,1.11-.13,0-.19-.01-.32-.02.05-.68.06-1.03.11-1.76.18.01.26.02.44.04.13.53.2.79.32,1.3.2-.48.31-.72.52-1.22.17.02.26.03.44.05-.07.71-.1,1.06-.17,1.75h0ZM44.88,29.89c-.54-.03-.8-.04-1.34-.05.02-.66.02-1.01.03-1.77.54.01.81.03,1.35.06,0,.13,0,.19-.01.32-.4-.02-.6-.03-1-.04,0,.17,0,.25,0,.41.37.01.56.02.93.03,0,.12,0,.18-.01.3-.37-.02-.56-.02-.93-.03,0,.18,0,.27-.01.45.41.01.61.02,1.02.04,0,.12,0,.18-.01.29h0ZM42.74,28.97c0,.6-.31.86-.91.87-.23,0-.35,0-.58.01,0-.64-.03-.99-.04-1.78.24,0,.36,0,.6-.01.62,0,.93.33.93.91h0ZM42.4,28.97h0c0-.09,0-.17-.03-.24-.02-.07-.05-.13-.09-.19-.04-.05-.11-.09-.18-.12-.08-.03-.17-.04-.28-.04-.1,0-.15,0-.26,0,0,.5.02.73.02,1.17.1,0,.15,0,.25,0,.11,0,.2-.02.28-.04.07-.03.13-.06.17-.11.04-.05.08-.11.09-.18.02-.07.03-.15.03-.25h0ZM40.53,29.88c-.14,0-.21.01-.35.02-.07-.17-.11-.25-.19-.43-.01-.03-.03-.06-.05-.08-.02-.03-.05-.05-.07-.07-.03-.02-.06-.03-.09-.04-.03,0-.07-.01-.11-.01-.14.01-.22.02-.36.03.02.28.03.41.04.66-.13,0-.2.02-.33.03-.04-.62-.07-.97-.12-1.79.33-.03.49-.04.82-.06.05,0,.1,0,.14,0,.04,0,.09,0,.13,0,.04,0,.08.02.12.04.04.02.08.04.11.07.03.03.06.06.08.09.02.03.04.07.06.1.02.04.03.08.04.11,0,.04.01.08.02.12,0,.11-.02.21-.07.29-.05.08-.21.19-.21.19,0,.01.15.14.2.26.08.2.13.29.21.48h0ZM39.29,28.98h0c.18-.01.27-.02.45-.03.06,0,.11-.01.15-.02.04-.01.08-.03.1-.05.03-.02.04-.05.06-.08.01-.03.02-.07.01-.12,0-.08-.03-.14-.08-.18-.05-.04-.13-.05-.23-.05-.2.01-.29.02-.49.03.01.21.02.3.03.49h0ZM37.53,29.9h0c.07,0,.14-.03.2-.06.06-.03.11-.08.15-.13.04-.05.07-.12.09-.2.02-.08.02-.16.01-.26,0-.1-.03-.19-.06-.26-.03-.08-.08-.14-.13-.19-.05-.05-.11-.09-.18-.11-.07-.02-.14-.03-.21-.02-.08,0-.15.03-.21.07-.06.04-.11.09-.16.16-.04.07-.07.14-.09.22-.02.08-.02.17,0,.27.01.1.04.18.07.25.03.07.08.12.13.17.05.04.11.07.17.09.06.02.13.02.21.01h0Z"/>
  <path class="st3" d="M39.79,39.11l.18.55h.58l-.47.34.18.55-.47-.34-.47.34.18-.55-.47-.34h.58l.18-.55h0ZM53.2,49.61l.06.19h.2l-.16.12.06.19-.16-.12-.16.12.06-.19-.16-.12h.2l.06-.19h0ZM57.25,45.28l.11.35h.37l-.3.22.11.35-.3-.22-.3.22.11-.35-.3-.22h.37l.11-.35h0ZM60.28,45.75l.11.35h.37l-.3.22.11.35-.3-.22-.3.22.11-.35-.3-.22h.37l.11-.35h0ZM62.33,45.11l.11.35h.37l-.3.22.11.35-.3-.22-.3.22.11-.35-.3-.22h.37l.11-.35h0ZM68.65,41.6l.11.35h.37l-.3.22.11.35-.3-.22-.3.22.11-.35-.3-.22h.37l.11-.35h0ZM62.38,48.79l.11.35h.37l-.3.22.11.35-.3-.22-.3.22.11-.35-.3-.22h.37l.11-.35h0ZM64.25,45.48l.11.35h.37l-.3.22.11.35-.3-.22-.3.22.11-.35-.3-.22h.37l.11-.35h0ZM58.2,34.06l.11.35h.37l-.3.22.11.35-.3-.22-.3.22.11-.35-.3-.22h.37l.11-.35h0ZM51.34,39.58l.11.35h.37l-.3.22.11.35-.3-.22-.3.22.11-.35-.3-.22h.37l.11-.35h0ZM37.55,41.03l.11.35h.37l-.3.22.11.35-.3-.22-.3.22.11-.35-.3-.22h.37l.11-.35h0ZM66.84,42.92l.14.45h.47l-.38.28.15.45-.38-.28-.38.28.14-.45-.38-.28h.47l.15-.45h0ZM65.71,44.41l.15.45h.47l-.38.28.15.45-.38-.28-.38.28.15-.45-.38-.28h.47l.15-.45h0ZM58.7,47.22l.15.45h.47l-.38.28.15.45-.38-.28-.38.28.15-.45-.38-.28h.47l.15-.45h0ZM62.42,46.78l.14.45h.47l-.38.28.15.45-.38-.28-.38.28.15-.45-.38-.28h.47l.15-.45h0ZM43.07,42.93l.15.45h.47l-.38.28.14.45-.38-.28-.38.28.15-.45-.38-.28h.47l.15-.45h0ZM55.32,39.44l.14.45h.47l-.38.28.15.45-.38-.28-.38.28.15-.45-.38-.28h.47l.15-.45h0ZM53.2,37.79l.15.45h.47l-.38.28.15.45-.38-.28-.38.28.14-.45-.38-.28h.47l.15-.45h0ZM46.19,35.55l.15.45h.47l-.38.28.15.45-.38-.28-.38.28.15-.45-.38-.28h.47l.15-.45h0ZM43.63,41.11l.15.45h.47l-.38.28.15.45-.38-.28-.38.28.15-.45-.38-.28h.47l.15-.45h0ZM52.27,41.01l.08.24h.26l-.21.15.08.24-.21-.15-.21.15.08-.24-.21-.15h.26l.08-.24h0ZM41.62,38.43l.08.24h.26l-.21.15.08.24-.21-.15-.21.15.08-.24-.21-.15h.26l.08-.24h0ZM58.93,28.96l.18.55h.58l-.47.34.18.55-.47-.34-.47.34.18-.55-.47-.34h.58l.18-.55h0ZM66.1,41.13l.18.55h.58l-.47.34.18.55-.47-.34-.47.34.18-.55-.47-.34h.58l.18-.55h0ZM38.17,31.38l.18.55h.58l-.47.34.18.55-.47-.34-.47.34.18-.55-.47-.34h.58l.18-.55h0ZM53.2,42.94l.18.55h.58l-.47.34.18.55-.47-.34-.47.34.18-.55-.47-.34h.58l.18-.55h0ZM45.8,44.44l.18.55h.58l-.47.34.18.55-.47-.34-.47.34.18-.55-.47-.34h.58l.18-.55h0Z"/>
</svg>