<?xml version="1.0" encoding="UTF-8"?>
<svg id="Capa_1" xmlns="http://www.w3.org/2000/svg" version="1.1" viewBox="0 0 74 132">
  <!-- Generator: Adobe Illustrator 29.4.0, SVG Export Plug-In . SVG Version: 2.1.0 Build 152)  -->
  <defs>
    <style>
      .st0 {
        fill: #582d85;
      }
    </style>
  </defs>
  <path class="st0" d="M14.9,123.7c-.6,0-1.3-.2-1.8-.7-1-1-1-2.6,0-3.5l42.8-42.8c2.5-2.5,3.9-5.8,3.9-9.3s-1.4-6.8-3.9-9.3L13.5,15.5c-1-1-1-2.6,0-3.5,1-1,2.6-1,3.5,0l42.5,42.5c3.4,3.4,5.3,8,5.3,12.8s-1.9,9.4-5.3,12.8l-42.8,42.8c-.5.5-1.1.7-1.8.7Z"/>
</svg>