<?xml version="1.0" encoding="utf-8"?>
<!-- Generator: Adobe Illustrator 28.0.0, SVG Export Plug-In . SVG Version: 6.00 Build 0)  -->
<svg version="1.1" id="Capa_1" xmlns="http://www.w3.org/2000/svg" xmlns:xlink="http://www.w3.org/1999/xlink" x="0px" y="0px"
	 viewBox="0 0 53 43" style="enable-background:new 0 0 53 43;" xml:space="preserve">
<style type="text/css">
	.st0{fill:#333333;}
</style>
<path class="st0" d="M42.84,19.26c-0.18-0.18-0.39-0.32-0.61-0.44c0.37-0.96,0.17-2.1-0.6-2.89l-14.6-14.6c-1.02-1.02-2.84-1-3.81,0
	c-0.51,0.51-0.79,1.19-0.79,1.91s0.28,1.4,0.79,1.91l12.32,12.33c-0.17-0.03-0.34-0.05-0.52-0.05H14c-1.49,0-2.7,1.21-2.7,2.7
	s1.21,2.7,2.7,2.7h21.01c0.18,0,0.35-0.02,0.51-0.05L23.86,34.43c-0.51,0.51-0.79,1.19-0.79,1.91s0.28,1.4,0.79,1.91
	c0.51,0.51,1.19,0.79,1.89,0.79c0.02,0.01,0.04,0,0.05,0c0.71,0,1.37-0.28,1.88-0.78l15.17-15.18c0.49-0.49,0.78-1.19,0.78-1.91
	S43.34,19.75,42.84,19.26z M37.66,19.6l0.15,0.15c0.12,0.13,0.26,0.24,0.4,0.34l-0.55,0.55c0.03-0.17,0.05-0.34,0.05-0.51
	C37.71,19.94,37.69,19.76,37.66,19.6z"/>
</svg>
