<?xml version="1.0" encoding="UTF-8"?>
<svg id="Capa_1" xmlns="http://www.w3.org/2000/svg" version="1.1" viewBox="0 0 74 132">
  <!-- Generator: Adobe Illustrator 29.4.0, SVG Export Plug-In . SVG Version: 2.1.0 Build 152)  -->
  <defs>
    <style>
      .st0 {
        fill: #582d85;
      }
    </style>
  </defs>
  <path class="st0" d="M62.3,11.2c.6,0,1.3.2,1.8.7,1,1,1,2.6,0,3.5L21.3,58.3c-2.5,2.5-3.9,5.8-3.9,9.3s1.4,6.8,3.9,9.3l42.5,42.5c1,1,1,2.6,0,3.5-1,1-2.6,1-3.5,0l-42.5-42.5c-3.4-3.4-5.3-8-5.3-12.8s1.9-9.4,5.3-12.8L60.5,12c.5-.5,1.1-.7,1.8-.7Z"/>
</svg>