<?xml version="1.0" encoding="UTF-8"?>
<svg id="Capa_1" xmlns="http://www.w3.org/2000/svg" version="1.1" viewBox="0 0 114 114">
  <!-- Generator: Adobe Illustrator 29.4.0, SVG Export Plug-In . SVG Version: 2.1.0 Build 152)  -->
  <defs>
    <style>
      .st0 {
        fill: #5fdd00;
      }
    </style>
  </defs>
  <g id="MnRFms">
    <g>
      <g>
        <path class="st0" d="M32.2,48.33c.94-7.95,10.04-8.32,16.11-9.86-.57-.68-1.51-1.17-2.12-1.8-1.03-1.07-1.92-2.98-2.76-3.82-1.28-1.27-2.32-.76-2.55-3.38-.14-1.6-.2-6.3.1-7.76.17-.79.76-1.52,1.4-1.99.35-.26.86-.25,1.15-.54.36-.34,1.23-2.15,1.81-2.85,5.99-7.21,17.31-7.22,23.3,0,.58.7,1.46,2.51,1.81,2.85.3.29.8.28,1.15.54.97.72,1.39,1.52,1.5,2.74.14,1.63.19,6.86-.27,8.23-.51,1.54-1.43,1.31-2.29,2.16-.87.86-1.67,2.92-2.74,3.83l-2.13,1.79c5.48,1.58,12.97,1.4,15.42,7.58.16.4.69,1.98.69,2.28v21.94l9.52-2.56.02-21.5c.27-1.43.91-1.78,2.3-1.44,4.89,1.19,12.75,6.57,13.19,12.03.92,11.58-.71,24.34,0,36.05-.41,4.75-5.64,8.43-9.54,10.39-19.5,9.81-61.05,9.82-80.52-.04-3.95-2-9.15-5.51-9.57-10.35.71-11.7-.92-24.47,0-36.05.43-5.46,8.29-10.84,13.19-12.03,1.39-.34,2.03,0,2.3,1.44l.02,21.5,9.52,2.56v-21.94ZM66.96,19.18c-4.61-7.01-15.32-7.01-19.92,0h19.92ZM70.14,22.14h-26.28v7.64h26.28v-7.64ZM66.96,32.75h-19.92c3.88,6.34,13.33,7.11,18.55,1.92.15-.15,1.51-1.8,1.37-1.92ZM41.53,71.75v-15.58c0-1.24,1.73-2.07,2.7-1.11.05.05.48.84.48.9v16.21c8.18.58,16.4.58,24.59,0v-16.21c0-.05.43-.84.48-.9.97-.96,2.7-.13,2.7,1.11v15.58l6.36-.85v-21.52c-.24-2.48-1.5-4.52-3.82-5.5-1.78-.75-11.73-3.3-13.46-3.31-.96,0-1.94.39-2.96.45-2.17.14-3.78-.32-5.74-.43-1.64-.1-11.68,2.46-13.56,3.17-2.56.97-3.84,2.9-4.14,5.61v21.52s6.37.85,6.37.85ZM19.7,48.43c-3.94,1.45-10.82,5.36-9.27,10.43,1.02,3.34,6.12,6.35,9.27,7.37v-17.8ZM94.3,66.24c5.89-2.13,13.67-7.64,6.78-13.89-1.76-1.6-4.56-3.18-6.78-3.92v17.8ZM24.15,102.9c1.08.36,2.07.75,3.18,1.06,17.59,4.88,41.76,4.89,59.35,0,1.11-.31,2.1-.7,3.18-1.06,3.66-1.24,6.87-2.35,10.03-4.7,1.24-.92,3.96-3.57,3.96-5.16v-29.14c-1.68,1.25-3.18,2.52-5.02,3.56-16.71,9.43-47.79,9.64-66.23,5.91-7.94-1.6-16.17-4.19-22.43-9.47v29.14c0,1.59,2.72,4.24,3.96,5.16,3.16,2.35,6.37,3.46,10.03,4.7Z"/>
        <path class="st0" d="M57.05,111.09c-15.34,0-30.68-2.49-40.51-7.46-4.25-2.15-9.4-5.76-9.83-10.74.34-5.65.14-11.58-.05-17.32-.21-6.27-.43-12.75.05-18.81.44-5.62,8.45-11.22,13.55-12.46.89-.22,1.49-.18,1.97.14.47.3.76.84.91,1.68l.02,21.22,8.55,2.3v-21.37c.83-7.01,7.78-8.44,13.35-9.58.77-.16,1.53-.31,2.26-.48-.15-.12-.31-.24-.46-.35-.36-.27-.72-.54-1.03-.86-.56-.58-1.06-1.37-1.55-2.13-.43-.67-.83-1.31-1.2-1.67-.36-.35-.69-.55-1.02-.74-.93-.55-1.5-1.02-1.68-2.94-.14-1.54-.22-6.31.11-7.9.17-.83.75-1.66,1.58-2.28.23-.17.48-.25.7-.32.17-.05.33-.11.41-.18.12-.12.46-.71.71-1.13.36-.63.74-1.29,1.07-1.68,2.94-3.55,7.33-5.58,12.02-5.58h0c4.69,0,9.08,2.04,12.02,5.58.33.39.7,1.05,1.07,1.68.25.43.58,1.01.71,1.13.08.08.24.13.41.18.22.07.47.15.7.32,1.06.8,1.57,1.72,1.69,3.08.14,1.54.21,6.94-.29,8.42-.39,1.17-1.03,1.5-1.59,1.8-.29.15-.56.29-.81.55-.35.34-.7.94-1.08,1.57-.51.85-1.04,1.73-1.69,2.28l-1.42,1.2c.97.24,1.98.44,3.04.65,4.6.92,9.82,1.95,11.81,6.97.06.14.72,1.99.72,2.46v21.31l8.55-2.3.02-21.13c.17-.93.46-1.47.92-1.77.48-.31,1.09-.35,1.97-.14,5.1,1.24,13.11,6.85,13.55,12.46.48,6.06.26,12.54.05,18.81-.19,5.74-.39,11.67-.05,17.25-.48,5.59-7.01,9.44-9.8,10.84-9.84,4.95-25.15,7.42-40.45,7.43ZM21.22,45.12c-.2,0-.44.04-.73.11-4.83,1.18-12.41,6.4-12.82,11.6-.48,6.01-.26,12.46-.05,18.7.19,5.76.39,11.71.05,17.34.39,4.47,5.28,7.85,9.31,9.89,19.42,9.83,60.59,9.84,80.09.03,2.64-1.33,8.84-4.97,9.27-10-.34-5.55-.14-11.51.05-17.27.21-6.24.42-12.69-.05-18.7-.41-5.2-7.99-10.43-12.82-11.6-.59-.14-.99-.14-1.22,0-.23.15-.39.49-.49,1.05v21.78s-10.49,2.82-10.49,2.82v-22.56c-.02-.24-.46-1.62-.65-2.1-1.8-4.53-6.53-5.47-11.1-6.38-1.35-.27-2.74-.54-4-.91l-.87-.25,2.82-2.37c.53-.45,1.02-1.26,1.49-2.04.41-.69.8-1.33,1.23-1.76.36-.36.72-.55,1.04-.72.5-.26.86-.46,1.13-1.26.42-1.25.39-6.41.24-8.04-.1-1.09-.46-1.76-1.31-2.4-.1-.08-.25-.12-.42-.18-.26-.08-.54-.17-.78-.41-.21-.2-.47-.64-.87-1.34-.33-.57-.7-1.22-.98-1.55-2.76-3.33-6.87-5.24-11.28-5.24s-8.52,1.91-11.28,5.24c-.27.33-.65.98-.98,1.55-.4.7-.66,1.14-.87,1.34-.24.23-.53.32-.78.41-.16.05-.32.1-.42.18-.64.48-1.09,1.11-1.22,1.71-.29,1.37-.24,6.01-.09,7.61.14,1.56.52,1.79,1.21,2.19.34.2.76.45,1.2.89.44.44.88,1.12,1.33,1.84.46.72.93,1.47,1.43,1.98.25.26.57.5.91.75.43.32.88.66,1.23,1.07l.49.59-.74.19c-.99.25-2.06.47-3.16.7-5.54,1.14-11.82,2.43-12.58,8.72v22.54l-10.48-2.82-.02-21.87c-.1-.47-.26-.82-.48-.96-.12-.08-.28-.11-.49-.11ZM57.02,108.08c-10.51,0-21.04-1.22-29.82-3.66-.78-.21-1.5-.47-2.21-.72-.33-.12-.66-.23-1-.35h0c-3.37-1.14-6.85-2.31-10.16-4.77-.82-.61-4.15-3.52-4.15-5.54v-30.18l.79.67c6.82,5.75,15.94,8.1,22.21,9.37,16.98,3.43,48.65,3.88,65.9-5.86,1.35-.76,2.5-1.64,3.71-2.57.41-.32.83-.64,1.26-.96l.77-.57v30.1c0,2.02-3.33,4.93-4.15,5.54-3.3,2.45-6.63,3.58-10.16,4.77-.33.11-.66.23-.98.34-.73.26-1.45.51-2.22.73-8.76,2.44-19.27,3.66-29.78,3.66ZM24.3,102.45c.34.12.68.23,1.01.35.7.25,1.39.49,2.14.7,17.42,4.83,41.72,4.83,59.09,0,.75-.21,1.45-.46,2.16-.71.33-.12.66-.23.99-.35,3.46-1.17,6.72-2.27,9.9-4.63,1.31-.97,3.76-3.47,3.76-4.77v-28.18c-.16.12-.32.25-.48.37-1.24.95-2.42,1.85-3.82,2.65-17.47,9.86-49.44,9.42-66.56,5.96-6.14-1.24-14.97-3.5-21.85-8.93v28.13c0,1.3,2.45,3.8,3.76,4.77,3.19,2.37,6.45,3.47,9.9,4.63h0ZM57,73.08c-4.12,0-8.24-.14-12.33-.43l-.45-.03v-16.57c-.09-.18-.32-.61-.38-.7-.39-.38-.96-.2-1.12-.13-.33.14-.72.47-.72.95v16.13l-7.32-.98v-21.94c.32-3.04,1.81-5.07,4.44-6.06,1.95-.74,12.05-3.29,13.76-3.2.73.04,1.4.13,2.08.22,1.16.15,2.27.3,3.6.21.43-.03.88-.12,1.31-.22.54-.12,1.1-.24,1.66-.24h.01c1.83,0,11.92,2.62,13.64,3.35,2.37,1,3.83,3.09,4.12,5.89v21.99s-7.33.98-7.33.98v-16.13c0-.48-.39-.81-.72-.95-.16-.07-.72-.25-1.16.18-.02.04-.25.47-.34.65v16.57l-.45.03c-4.09.29-8.21.43-12.33.43ZM45.19,71.72c7.84.53,15.78.53,23.62,0v-15.77c0-.27.57-1.18.62-1.24.57-.57,1.42-.71,2.21-.39.8.33,1.31,1.05,1.31,1.84v15.03l5.39-.72v-21.1c-.24-2.39-1.49-4.2-3.52-5.06-1.83-.77-11.69-3.26-13.27-3.27-.45-.02-.95.1-1.47.21-.47.1-.95.2-1.45.24-1.43.09-2.63-.07-3.79-.22-.65-.09-1.31-.17-2.01-.21-1.53-.08-11.55,2.45-13.36,3.14-2.29.87-3.54,2.58-3.83,5.22v21.05s5.41.72,5.41.72v-15.03c0-.78.51-1.5,1.31-1.84.79-.33,1.63-.18,2.21.39.05.05.62.96.62,1.24v15.77ZM93.82,66.92v-19.16l.63.21c2.34.77,5.2,2.43,6.96,4.02,2.26,2.05,3.19,4.19,2.76,6.37-.75,3.82-5.5,6.8-9.7,8.32l-.64.23ZM94.78,49.11v16.43c3.63-1.44,7.8-4.12,8.44-7.36.36-1.83-.47-3.67-2.46-5.47-1.51-1.37-3.89-2.79-5.98-3.59ZM20.18,66.9l-.63-.2c-3.33-1.08-8.5-4.18-9.58-7.69-1.63-5.33,5.24-9.44,9.56-11.03l.65-.24v19.15ZM19.22,49.13c-4,1.61-9.67,5.19-8.33,9.59.9,2.94,5.27,5.68,8.33,6.83v-16.42ZM57.03,38.57c-.53,0-1.06-.03-1.59-.1-3.75-.45-6.96-2.45-8.81-5.48l-.45-.73h20.96l.3.25.02.24c.02.55-1.51,2.24-1.52,2.25-2.3,2.28-5.54,3.56-8.91,3.56ZM47.94,33.23c1.74,2.36,4.47,3.91,7.61,4.29,3.62.44,7.24-.76,9.7-3.19.11-.11.55-.65.88-1.1h-18.19ZM70.62,30.26h-27.24v-8.6h27.24v8.6ZM44.34,29.3h25.32v-6.68h-25.32v6.68ZM67.85,19.66h-21.71l.49-.74c2.25-3.43,6.13-5.47,10.36-5.47,4.24,0,8.11,2.05,10.36,5.47l.49.74ZM47.98,18.7h18.05c-2.12-2.7-5.43-4.29-9.02-4.29-3.59,0-6.9,1.59-9.02,4.29Z"/>
      </g>
      <g>
        <g>
          <path class="st0" d="M89.85,102.9c-1.08.36-2.07.75-3.18,1.06l-14.07-16.09-15.23,17.02c-.89.26-1.43-.37-1.97-.92-4.51-4.62-8.48-10.33-12.92-15.05-.34-.36-.7-.73-1.09-1.04l-14.07,16.09c-1.11-.31-2.1-.7-3.18-1.06l15.36-17.81c.75-.77,1.52-1.79,2.64-.94l14.77,16.82c.29.05.82-.61,1.03-.83,4.45-4.72,8.42-10.44,12.92-15.05.6-.61,1.26-1.52,2.24-1.18l16.74,18.99Z"/>
          <path class="st0" d="M56.97,105.43c-.81,0-1.38-.59-1.81-1.03l-.1-.1c-2.4-2.45-4.67-5.25-6.87-7.95-1.95-2.4-3.97-4.89-6.06-7.11-.22-.23-.45-.47-.69-.7l-13.95,15.96-.29-.08c-.78-.21-1.5-.47-2.21-.72-.33-.12-.66-.23-1-.35l-.68-.23,16.06-18.59c.68-.72,1.71-1.8,3.07-.77l14.63,16.65c.11-.13.33-.38.42-.47l.12-.13c2.1-2.22,4.13-4.72,6.09-7.14,2.19-2.69,4.45-5.48,6.84-7.92l.22-.23c.58-.62,1.37-1.47,2.52-1.07l.12.04.08.09,17.21,19.53-.69.23c-.33.11-.66.23-.98.34-.73.26-1.45.51-2.22.73l-.29.08-13.91-15.91-14.96,16.71-.13.04c-.19.06-.37.08-.54.08ZM41.33,87.21l.36.29c.42.33.8.72,1.14,1.09,2.11,2.24,4.14,4.74,6.11,7.16,2.19,2.69,4.45,5.47,6.81,7.89l.1.1c.49.51.81.8,1.27.73l15.49-17.31,14.22,16.27c.64-.19,1.25-.4,1.87-.62.1-.04.21-.07.31-.11l-16.17-18.34c-.46-.1-.84.26-1.39.85l-.23.25c-2.35,2.41-4.6,5.18-6.78,7.86-1.97,2.43-4.01,4.94-6.14,7.19l-.1.11c-.47.52-.89.95-1.36.86l-.17-.03-14.88-16.95c-.54-.4-.93-.11-1.72.73l-.22.22-14.88,17.25c.11.04.23.08.34.12.61.22,1.21.43,1.85.62l14.17-16.21Z"/>
        </g>
        <g>
          <path class="st0" d="M63.48,85.51c0,3.58-2.9,6.48-6.48,6.48s-6.48-2.9-6.48-6.48,2.9-6.48,6.48-6.48,6.48,2.9,6.48,6.48ZM56.93,82c-4.67.1-4.57,7.68.8,6.9,3.94-.57,3.53-6.98-.8-6.9Z"/>
          <path class="st0" d="M57,92.48c-3.84,0-6.96-3.12-6.96-6.96s3.12-6.96,6.96-6.96,6.96,3.12,6.96,6.96-3.12,6.96-6.96,6.96ZM57,79.51c-3.31,0-6,2.69-6,6s2.69,6,6,6,6-2.69,6-6-2.69-6-6-6ZM56.97,89.43c-1.34,0-2.44-.52-3.15-1.5-.87-1.2-.99-2.93-.3-4.32.65-1.3,1.89-2.06,3.4-2.09h0c2.53-.08,3.84,1.87,3.99,3.67.15,1.77-.76,3.84-3.11,4.18-.28.04-.56.06-.82.06ZM56.94,82.48h0c-1.57.03-2.28.99-2.56,1.56-.53,1.07-.44,2.41.22,3.32.63.88,1.72,1.25,3.06,1.05,1.73-.25,2.4-1.81,2.29-3.15-.12-1.42-1.08-2.87-3.01-2.79Z"/>
        </g>
        <g>
          <path class="st0" d="M22.19,78.47c-.95.89-5.98-1.28-6.26-2.21-.31-1.05.39-2.24,1.49-2.14.26.02,4.18,1.69,4.47,1.9.82.58,1.06,1.73.3,2.46Z"/>
          <path class="st0" d="M21.42,79.17c-.41,0-.91-.08-1.5-.24-1.36-.36-4.15-1.52-4.46-2.53-.21-.72-.06-1.51.4-2.08.4-.49.98-.74,1.6-.68.39.04,4.41,1.78,4.71,1.98.56.39.91,1.01.96,1.65.04.59-.18,1.14-.61,1.55h0c-.24.23-.61.34-1.1.34ZM17.27,74.59c-.3,0-.53.18-.66.34-.26.32-.35.78-.22,1.19.19.4,2.47,1.65,4.32,2,.78.15,1.1.05,1.15,0,.28-.27.32-.57.31-.78-.03-.36-.23-.71-.55-.93-.33-.21-3.9-1.73-4.28-1.82-.02,0-.04,0-.06,0Z"/>
        </g>
        <g>
          <path class="st0" d="M91.81,78.47c-.75-.7-.53-1.92.29-2.46.32-.21,4.21-1.86,4.46-1.87,1.58-.09,2.19,1.85.78,2.87-.88.64-4.66,2.28-5.53,1.46Z"/>
          <path class="st0" d="M92.6,79.16c-.47,0-.86-.1-1.12-.34h0c-.44-.41-.66-.99-.6-1.6.06-.65.42-1.25.96-1.61.18-.12,4.26-1.93,4.69-1.95.9-.06,1.67.45,1.96,1.26.32.89-.02,1.87-.87,2.48-.57.42-3.3,1.76-5.02,1.76ZM96.66,74.62s-.05,0-.07,0c-.31.08-3.87,1.58-4.22,1.8-.3.19-.49.53-.53.89-.03.32.08.61.3.82h0c.51.47,3.82-.71,4.92-1.5.6-.43.66-1.02.53-1.38-.14-.39-.48-.62-.93-.62Z"/>
        </g>
        <g>
          <path class="st0" d="M91.82,93.64c.18-.18,4.42-1.97,4.71-1.98,1.84-.08,2.18,1.98.6,2.95-.49.3-3.78,1.7-4.23,1.72-1.4.05-2.04-1.75-1.09-2.69Z"/>
          <path class="st0" d="M92.84,96.81c-.78,0-1.46-.45-1.78-1.2-.35-.81-.19-1.72.42-2.31l.34.34-.34-.34c.26-.26,4.63-2.1,5.03-2.12,1-.05,1.77.44,2.03,1.27.29.93-.17,1.97-1.15,2.57-.44.27-3.85,1.77-4.46,1.79-.03,0-.05,0-.08,0ZM92.13,94.01c-.36.38-.33.89-.18,1.22.17.4.53.66.94.62.42-.05,3.51-1.35,3.99-1.65.69-.43.86-1.06.74-1.47-.12-.4-.52-.61-1.06-.59-.35.08-3.96,1.6-4.42,1.87Z"/>
        </g>
        <g>
          <path class="st0" d="M96.16,83.03c1.67-.32,2.66,1.24,1.55,2.4-.52.55-4.44,2.25-5.1,2.12-1.15-.24-1.76-1.68-.83-2.55.26-.24,3.97-1.9,4.39-1.98Z"/>
          <path class="st0" d="M92.65,88.03c-.05,0-.1,0-.14-.01-.76-.16-1.39-.74-1.6-1.49-.19-.69,0-1.39.54-1.88.35-.32,4.15-2.01,4.62-2.1,1.02-.19,1.95.19,2.37.97.39.72.24,1.58-.39,2.24-.54.57-4.3,2.27-5.4,2.27ZM96.25,83.5c-.44.1-3.83,1.63-4.17,1.88-.34.32-.3.7-.24.9.11.4.45.72.87.8.56.09,4.2-1.49,4.66-1.98.34-.35.43-.77.24-1.12-.22-.41-.75-.6-1.35-.48Z"/>
        </g>
        <g>
          <path class="st0" d="M22.18,93.64c.96.94.31,2.74-1.09,2.69-.75-.03-4.82-1.87-5.1-2.54-.5-1.15.48-2.27,1.67-2.11.26.03,4.34,1.79,4.52,1.96Z"/>
          <path class="st0" d="M21.16,96.81s-.05,0-.08,0c-.82-.03-5.13-1.92-5.53-2.83-.29-.67-.21-1.41.22-1.98.45-.59,1.2-.9,1.95-.8.2.03,4.48,1.78,4.79,2.1h0c.6.6.77,1.5.42,2.32-.32.74-1,1.2-1.78,1.2ZM17.44,92.14c-.34,0-.68.16-.89.44-.22.29-.26.66-.11,1.02.35.51,4.04,2.22,4.68,2.25.42.03.77-.21.94-.62.14-.33.18-.84-.18-1.22-.43-.25-3.9-1.75-4.3-1.86-.04,0-.09,0-.13,0Z"/>
        </g>
        <g>
          <path class="st0" d="M16.88,83.02c.45-.1.69-.04,1.12.06.52.12,3.89,1.61,4.23,1.92.89.81.29,2.32-.83,2.55-.62.12-4.29-1.45-4.87-1.93-.94-.78-.89-2.32.36-2.6Z"/>
          <path class="st0" d="M21.35,88.03c-1.08,0-4.62-1.62-5.13-2.04-.64-.53-.95-1.4-.77-2.17.16-.66.64-1.12,1.33-1.27h0c.54-.12.87-.04,1.29.05.61.14,4.06,1.65,4.49,2.05.51.47.7,1.17.51,1.87-.21.76-.83,1.35-1.57,1.5-.04,0-.09.01-.14.01ZM16.99,83.49c-.4.09-.55.35-.6.56-.1.41.08.9.45,1.2.51.42,3.83,1.83,4.46,1.83,0,0,.01,0,.02,0,.37-.08.71-.4.82-.81.05-.17.12-.58-.23-.9-.31-.25-3.5-1.69-4.01-1.81-.42-.1-.58-.13-.91-.06h0Z"/>
        </g>
      </g>
    </g>
  </g>
</svg>