<?xml version="1.0" encoding="UTF-8"?>
<svg id="Capa_1" xmlns="http://www.w3.org/2000/svg" version="1.1" viewBox="0 0 114 114">
  <!-- Generator: Adobe Illustrator 29.4.0, SVG Export Plug-In . SVG Version: 2.1.0 Build 152)  -->
  <defs>
    <style>
      .st0 {
        fill: #5fdd00;
      }
    </style>
  </defs>
  <g id="_x30_v2gUK">
    <g>
      <path class="st0" d="M57.14,7.74c.3.26,1.36,1.12,1.36,1.46v8.46c8.05-9.09,22.03-6.15,26.63,4.77,10.61-.48,18.08,10.23,13.3,19.93,3.19,2.06,6.09,5.25,7.2,8.95.29.96.41,1.95.69,2.91-.07.94.1,2,0,2.92s-.72,2.8-1.07,3.69c-1.1,2.74-3.09,5.01-5.29,6.9,5.79,10.38-2.42,23.72-14.22,23.46-3.31,11.78-19,15.73-27.24,6.39v8.26c0,.42-1.16,1.37-1.66,1.45-1.17.18-4.99.15-6.21.02-1.01-.11-1.46-.6-1.79-1.51l-2.99-12.18c-2.08-1.12-4.53-1.64-6.57-2.94l-10.79,6.33c-.83.41-1.46.09-2.15-.4-1.41-1-7.06-6.72-8.17-8.16-.59-.76-.94-1.44-.43-2.38l6.27-11.02c.07-.35-1.13-2.37-1.36-2.94-.35-.86-.9-3-1.29-3.57-.25-.36-.49-.37-.86-.5-3.77-1.29-8.48-1.59-12.33-2.83-.66-.28-1.34-1-1.36-1.75.27-3.76-.34-7.97,0-11.68.09-1.01.57-1.61,1.52-1.98l12.76-2.99c1.12-2.08,1.64-4.53,2.94-6.58l-6.33-10.8c-.41-.83-.09-1.46.4-2.15,1.19-1.67,6.49-7.41,8.06-8.66.92-.74,1.61-1.1,2.73-.39l10.15,6.59c.71.13,2.08-.86,2.84-1.17.88-.36,3.14-.95,3.7-1.35.36-.25.37-.49.5-.86,1.21-3.56,1.43-9.09,2.83-12.34.27-.63.78-.93,1.26-1.36h7ZM54.61,11.63l-2.35.11c-.93,3.54-1.51,7.2-2.44,10.74-.2.76-.35,1.86-.84,2.47-.61.77-4.18,1.69-5.38,2.2-1.58.67-3.84,2.44-5.45,1.83l-10.16-6.57-5.99,6.46,6.18,10.68c.22,1.37-1.38,3.63-1.97,5.01-.53,1.25-1.43,4.87-2.31,5.47l-13.18,3.24v8.5c3.56.99,7.25,1.55,10.82,2.49.72.19,1.76.34,2.36.75.88.6,1.78,4.22,2.31,5.47.64,1.5,2.36,3.78,1.89,5.32l-6.05,10.49.1.69,5.77,5.7,10.67-6.18c1.37-.22,3.63,1.38,5.01,1.97,1.25.53,4.86,1.43,5.47,2.31.18.26.25.52.35.81,1.3,3.56,1.63,8.05,2.84,11.71l2.35.11v-20.51l-.32-.26c-15-1.26-25.4-15.4-22.53-30.18.77-3.97,2.9-8.31,5.56-11.36,1.06-1.22,2.78-3.38,4.45-1.93,1.97,1.7-.96,3.81-2,5.16-10.44,13.48-1.96,32.95,14.85,34.39v-3.89c-12.55-1.24-19.59-15.3-13.1-26.23,2.72-4.59,7.72-8,13.1-8.38V11.63ZM86.3,26.41v3.79c0,.72-.76,3.02-1.07,3.79-.29.72-2.04,3.4-2.04,3.61,0,.17.06.29.2.38,1.65.89,6.08,4.11,3.79,6.13-1.86,1.64-2.71-.31-3.79-1.27-1-.9-2.16-1.65-3.41-2.16-2.62,1.86-6.85,3.69-10.12,3.25-2.18-.29-2.16-3.51-.18-3.89,2.86-.55,4.44-.3,7.15-1.99,11.22-7.02,3.73-25.4-9.69-21.16-4.25,1.34-8.65,5.92-8.65,10.6v4.76c2.32-.13,4.66-.76,6.59-2.06,1.28-.86,2.69-3.01,4.4-1.45,2.18,1.99-1.69,4.49-3.21,5.36-2.33,1.33-5.08,2.16-7.78,2.04v16.53c4.5-4.24,11.45-5.19,16.91-2.24,2.25,1.21,3.69,3.31,6.03,4.28,1.56.65,3.24.88,4.93.89.25-1.93,3.49-7.76,5.73-4.75,1.15,1.55-.24,2.37-.91,3.51-1.28,2.18-1.27,4.17,0,6.35.45.77,1.34,1.35,1.33,2.37-.02,1.41-1.53,2.18-2.79,1.8-1.22-.36-3.19-4.05-3.27-5.38-2.93.16-5.6-.41-8.13-1.88-2.61-1.52-3.62-3.57-6.82-4.45-5.73-1.58-9.45,1.15-13.02,5.25v21.1c3.79-1.34,9.28-.41,12.03,2.65.82.91,1.04,2.43-.1,3.16-1.93,1.23-3.17-1.04-4.8-1.76-2.28-1.01-4.97-.84-7.14.36-.49,6.25,1.31,12.33,7.83,14.31,17.21,5.23,22.17-19.49,5.99-22.91-1.65-.35-4.39.06-4.1-2.52.28-2.52,4.2-1.58,5.85-1.16,4.17,1.06,7.62,3.98,10.01,7.48.98-1.06,1.7-2.62,1.99-4.03.28-1.37-.12-3.73,1.89-3.95,3.3-.37,2.2,4.42,1.6,6.27-.73,2.26-2.15,4.17-3.75,5.88.28,1.35.66,2.59.51,3.99,7.99-.35,13.35-8.15,11.02-15.79-.5-1.64-2.21-3.47-1.85-5.07.19-.84,1.89-1.67,2.58-2.28,5.83-5.19,5.79-12.99-.61-17.65-.87-.63-3.41-1.72-3.67-2.55-.52-1.63.55-2.2,1.11-3.38,3.19-6.76-1.28-13.77-8.59-14.13ZM54.61,44.1c-15.43,2.46-15.43,24.38,0,26.83v-26.83Z"/>
      <circle class="st0" cx="46.84" cy="36.13" r="1.92"/>
    </g>
  </g>
</svg>