<?xml version="1.0" encoding="UTF-8"?>
<svg id="Capa_1" xmlns="http://www.w3.org/2000/svg" version="1.1" viewBox="0 0 114 114">
  <!-- Generator: Adobe Illustrator 29.4.0, SVG Export Plug-In . SVG Version: 2.1.0 Build 152)  -->
  <defs>
    <style>
      .st0 {
        fill: #5fdd00;
      }
    </style>
  </defs>
  <path class="st0" d="M108.06,98.59c.2.85.34,2.15.4,3.44s.04,2.58-.08,3.39c-.08.5-.26.84-.52,1.08s-.6.38-1,.49h-.06s-.06.02-.06.02l-49.97.02-49.97.02c-.55-.01-1-.11-1.34-.28s-.58-.42-.71-.76c-.14-.36-.19-1.7-.2-3.04s.03-2.67.06-2.99c.21-2.4,1.51-4.73,3.32-6.46s4.15-2.86,6.45-2.86h2.62v-8.47s0-8.47,0-8.47c.37-5.61,2.76-9.04,6.12-11.36s7.69-3.55,11.95-4.76c.89-.25,1.79-.51,2.68-.77s1.78-.54,2.64-.84c.03-.01.08-.03.12-.04s.1-.03.15-.05c.09-.03.25-.07.4-.13s.32-.11.42-.17l-.02-2.01-.02-2.01c-1.33-1.06-2.44-2.37-3.29-3.85s-1.42-3.12-1.68-4.83c-.01,0-.03,0-.04,0s-.03,0-.04,0c-1.06,0-2.07-.27-2.96-.76s-1.66-1.21-2.21-2.11c-.61-.99-.92-2.08-.91-3.18s.31-2.2.93-3.21c.05-.08.13-.19.22-.3s.2-.25.31-.37c.09-.1.17-.2.24-.29s.13-.16.16-.21c.09-.3.11-.92.11-1.64s-.04-1.56-.07-2.3c-.02-.54-.05-1.06-.06-1.54s-.01-.89,0-1.22c.2-3.15,1.21-6.11,2.87-8.64s3.99-4.66,6.83-6.14c2.8-1.46,5.83-2.14,8.83-2.05s5.96.95,8.63,2.57c3.32,2.02,5.72,4.79,7.18,8.29s1.98,7.72,1.55,12.65c.05.11.12.22.19.32s.16.21.26.32c.09.1.18.21.27.33s.18.25.26.39c.52.91.8,1.89.83,2.87s-.17,1.96-.62,2.87c-.45.91-1.1,1.67-1.89,2.24s-1.73.94-2.76,1.09c-.07,0-.15.01-.23.01s-.18,0-.28-.01c-.05,0-.11,0-.17,0s-.13,0-.18,0c-.25,1.63-.78,3.17-1.6,4.63s-1.94,2.84-3.36,4.17l-.02,1.96-.02,1.96,7.17,2.26,7.17,2.26c2.48.71,4.99,2.69,6.88,5.09s3.16,5.24,3.16,7.69v17.76h7.99v-27.61l-2.08-2.08-2.08-2.08c-.05.02-.15.06-.26.1s-.23.09-.32.13c-.15.06-.29.12-.44.17s-.29.09-.42.11c-.76.1-1.44.05-2.1-.16s-1.31-.6-1.98-1.17c-.46-.39-1.69-1.55-2.88-2.79s-2.33-2.53-2.62-3.18c-.4-.93-.47-1.94-.23-2.91s.79-1.9,1.61-2.66c.81-.75,1.77-1.22,2.74-1.39s1.97-.02,2.85.45c.44.23,1.81,1.5,3.14,2.81s2.65,2.67,2.96,3.08c.44.57.73,1.24.85,1.94s.09,1.45-.11,2.18c-.03.1-.06.19-.11.28s-.09.18-.13.26c-.03.05-.06.12-.09.19s-.06.13-.07.18l2.53,2.53,2.53,2.53v29.11h4.13c2.05,0,4.18.93,5.94,2.38s3.12,3.44,3.62,5.56ZM83.56,50.82c-.41-.37-.83-.74-1.23-1.12s-.77-.76-1.1-1.13c-.27-.15-.5-.18-.76-.09s-.54.31-.9.67c-.37.37-.58.65-.65.92s0,.51.21.8c.17.24,1.3,1.41,2.44,2.55s2.3,2.26,2.52,2.41c.42.26.82.22,1.18.03s.67-.53.92-.87c.22-.3.33-.52.33-.75s-.11-.45-.33-.75c-.32-.44-.74-.88-1.19-1.33s-.96-.89-1.45-1.33ZM7.9,103.59h97.07v-3.17c0-1.47-.88-3.05-2.15-4.26s-2.92-2.06-4.47-2.07c-5.35.02-10.75.03-16.13.03s-10.74-.02-16-.03c-8.67-.02-17.49-.04-26.34-.02s-17.74.08-26.54.23c-1.57.4-2.86,1.23-3.8,2.39s-1.51,2.68-1.65,4.45v2.46ZM44.64,70.74c-.43.33-.93.71-1.48.88s-1.15.12-1.77-.44l-.05-.06-.05-.06-2.86-5-2.86-5c-.48.16-.97.31-1.46.45s-.98.28-1.46.41c-1.63.45-3.28.92-4.83,1.57s-2.97,1.52-4.15,2.76c-.83.87-1.58,2.04-2.16,3.27s-.97,2.52-1.08,3.65v17.46h8.68v-15.97c0-.35.17-.64.46-.84s.7-.33,1.19-.33.9.12,1.19.33.46.5.46.84v15.97h10.67l1.39-9.18,1.39-9.18-.35-.97-.35-.97c-.09.06-.17.12-.26.19s-.18.13-.27.2ZM35.57,28.37c.02.42.03.84.04,1.26s.01.85,0,1.26h.31s.31,0,.31,0c-.02-.44.02-.82.11-1.15s.24-.59.44-.81c.34-.37.79-.55,1.29-.62s1.07-.06,1.65-.03c.22,0,.44.02.67.02s.45,0,.67-.01c2.99-.19,5.64-.62,7.96-1.29s4.28-1.57,5.89-2.7c.1-.07.2-.15.3-.23s.19-.17.29-.26c.34-.31.76-.69,1.26-.85s1.08-.1,1.73.49c.43.39.84.83,1.25,1.29s.8.95,1.19,1.43c.39.48.79.97,1.19,1.43s.82.9,1.24,1.28c.22.29.33.56.38.83s.05.52.05.76c0,.06,0,.11,0,.17s0,.11,0,.16l.43.03.43.03c.12-2.36.07-4.86-.52-7.3s-1.72-4.82-3.78-6.93c-1.95-2-4.39-3.32-7.02-3.9s-5.45-.42-8.18.54c-2.7.95-4.96,2.57-6.62,4.62s-2.71,4.55-2.97,7.27c-.05.5-.06,1.04-.06,1.58s.03,1.09.05,1.63ZM39.71,31.7v10.07c0,.55.2,1.39.5,2.22s.67,1.68,1.03,2.27c.78,1.28,1.81,2.37,3.03,3.19s2.61,1.39,4.1,1.64c1.48.25,2.96.17,4.37-.2s2.73-1.05,3.88-1.99c2.05-1.7,3.04-3.7,3.49-5.89s.36-4.57.28-7.02c-.03-.83-.06-1.68-.07-2.52s0-1.7.06-2.53l-.05-.18-.05-.18-1.64-1.81-1.64-1.81c-2.5,1.87-5.44,3.01-8.45,3.7s-6.08.95-8.84,1.06ZM57.01,67.45l2.12-3.7,2.12-3.7c-.61-.23-1.23-.45-1.85-.64s-1.25-.36-1.86-.5l-2.46,2.81-2.46,2.81,2.15,1.49,2.15,1.49.04-.03.04-.03ZM55.27,56.32v-2.64c-1.39.48-2.75.77-4.08.89s-2.64.05-3.94-.2c-.29-.06-.57-.13-.85-.21s-.54-.18-.81-.27c-.14-.05-.27-.09-.4-.14s-.26-.09-.4-.13v2.5c.08.12.26.36.46.63s.43.55.6.76l2.09,2.34,2.09,2.34,2.62-2.94,2.62-2.94ZM49.34,70.53c.27.02.72.06,1.12.06s.77-.05.86-.19c.05-.1.2-.46.35-.87s.3-.85.38-1.11c-.33-.27-.74-.59-1.12-.86s-.72-.48-.9-.55c-.19.12-.61.39-1.01.66s-.79.54-.94.65l.43,1.09.43,1.09c.06,0,.13,0,.2.02s.14.01.21.02ZM49.33,73.87l-1.39,8.39-1.39,8.39h7l-1.26-8.4-1.26-8.4c-.13-.03-.34-.03-.55-.03s-.44.01-.61.02c-.1,0-.19,0-.28.01s-.16,0-.24,0ZM79.64,90.65v-17.76c0-.41-.22-1.21-.51-2.04s-.65-1.67-.92-2.16c-1.18-2.16-2.79-3.54-4.63-4.53s-3.92-1.61-6.06-2.24c-.45-.13-.9-.27-1.35-.4s-.9-.28-1.36-.43h-.12s-.12.02-.12.02l-2.86,4.95-2.86,4.95c-.61.69-1.23.79-1.8.64s-1.11-.55-1.53-.87c-.1-.08-.2-.15-.3-.23s-.2-.14-.3-.21l-.34.99-.34.99,1.38,9.17,1.38,9.17h10.67v-15.83c0-.15.03-.29.1-.43s.16-.27.29-.39c.18-.18.42-.32.67-.42s.51-.15.75-.15c.35.01.76.21,1.08.49s.56.66.56,1.03v15.7h8.54ZM43.2,67.45l2.13-1.36,2.13-1.36-2.46-2.93-2.46-2.93c-.16.02-.47.11-.83.22s-.75.25-1.08.36c-.33.12-.63.22-.9.31s-.51.16-.72.21l2.09,3.74,2.09,3.74ZM63.8,39.44c.49-.01.92-.12,1.3-.31s.68-.47.9-.83c.25-.4.39-.88.39-1.37s-.11-.98-.35-1.4c-.22-.39-.53-.7-.91-.93s-.83-.36-1.33-.4v5.24ZM36.27,34.21c-.49.05-.93.19-1.31.41s-.67.53-.89.92c-.24.43-.36.91-.35,1.38s.14.95.39,1.35c.22.36.52.63.89.83s.79.31,1.27.33v-5.22Z"/>
  <path class="st0" d="M78.15,32.94c-1.02-.13-2.07-.57-2.89-1.27s-1.42-1.64-1.54-2.79c-.1-.85-.15-2.56-.15-4.26s.05-3.4.17-4.25c.13-.94.67-1.84,1.44-2.54s1.75-1.18,2.76-1.27c1.16-.11,2.36-.13,3.58-.13s2.45.06,3.66.1c1.1.04,2.21.08,3.31.1s2.19,0,3.24-.07c1.11.19,2.1.75,2.83,1.5s1.22,1.71,1.32,2.72c.1.99.14,2.44.14,3.88s-.05,2.86-.13,3.79c-.2,2.27-1.33,3.41-2.84,3.97s-3.38.56-5.05.55c-.53,0-1.05,0-1.54.01s-.96.04-1.38.11c-.2.2-.4.42-.61.65s-.42.46-.63.7c-.43.49-.87.98-1.32,1.44s-.9.88-1.35,1.23c-.22.17-.47.3-.72.39s-.51.13-.76.13c-.11,0-.22,0-.33-.03s-.21-.05-.31-.09c-.25-.1-.45-.25-.6-.46s-.26-.45-.3-.74c-.02-.15-.03-.39-.03-.72s.01-.76.02-1.29c0-.23.01-.48.02-.73s0-.48,0-.65ZM77.02,21.44c-.07.65-.11,2.08-.11,3.49s.05,2.79.16,3.32c.11.56.34.86.67,1.03s.79.19,1.36.21c.47.02,1.03.04,1.49.24s.84.6.95,1.37c.02.11.02.22.03.34s0,.22,0,.34l1.21-1.11,1.21-1.11h.08s.08-.02.08-.02c.57-.05,1.15-.07,1.74-.07s1.18.03,1.76.05c.57.02,1.14.05,1.71.05s1.12-.01,1.65-.06c.2-.02.53-.08.82-.25s.56-.45.61-.91c.09-.75.13-2.11.13-3.48s-.05-2.77-.13-3.59c-.04-.48-.19-.81-.48-1.03s-.72-.34-1.36-.39c-.78-.06-1.71-.11-2.71-.14s-2.07-.05-3.14-.05-2.13.02-3.12.05-1.9.08-2.67.14c-.66.05-1.12.19-1.43.44s-.47.62-.53,1.14Z"/>
</svg>