<?xml version="1.0" encoding="utf-8"?>
<!-- Generator: Adobe Illustrator 28.0.0, SVG Export Plug-In . SVG Version: 6.00 Build 0)  -->
<svg version="1.1" id="Capa_1" xmlns="http://www.w3.org/2000/svg" xmlns:xlink="http://www.w3.org/1999/xlink" x="0px" y="0px"
	 viewBox="0 0 286.1 74" style="enable-background:new 0 0 286.1 74;" xml:space="preserve">
<style type="text/css">
	.st0{fill:#ffffff;}
</style>
<g>
	<g>
		<g>
			<polygon class="st0" points="165.9,33 165.9,6.1 122.6,6.1 122.6,41.5 153.8,54.7 153.8,68.1 165.9,68.1 165.9,46.4 134.6,33.2 
				134.6,18.3 153.8,18.3 153.8,27.9 			"/>
			<polygon class="st0" points="122.6,68.1 153.6,68.1 122.6,54.9 			"/>
		</g>
		<g>
			<polygon class="st0" points="110.2,33 110.2,6.1 66.9,6.1 66.9,41.5 98.2,54.7 98.2,68.1 110.2,68.1 110.2,46.4 79,33.2 79,18.3 
				98.2,18.3 98.2,27.9 			"/>
			<polygon class="st0" points="66.9,68.1 97.9,68.1 66.9,54.9 			"/>
		</g>
		<polygon class="st0" points="42.7,11.4 42.7,56 23.5,56 23.5,11.4 11.4,6.3 11.4,68.1 54.7,68.1 54.7,6.3 		"/>
		<g>
			<g>
				<path class="st0" d="M180.7,5.1v6.6c0,0.8,0.2,1.4,0.6,1.9c0.4,0.5,1,0.7,1.7,0.7c0.7,0,1.3-0.2,1.7-0.7
					c0.4-0.5,0.6-1.1,0.6-1.9V5.1h1.5v6.7c0,1.2-0.3,2.1-1,2.8c-0.7,0.7-1.6,1-2.7,1c-1.1,0-2-0.3-2.7-1c-0.7-0.7-1-1.6-1-2.8V5.1
					H180.7z"/>
				<path class="st0" d="M193,7.7c0.4,0,0.8,0.1,1.2,0.3c0.4,0.2,0.7,0.6,0.9,1c0.2,0.4,0.3,1.1,0.3,2v4.4h-1.4v-3.9
					c0-0.8,0-1.4-0.1-1.7c-0.2-0.6-0.6-0.8-1.2-0.8c-1.3,0-1.9,0.9-1.9,2.6v3.8h-1.4V7.9h1.2c0.1,0.2,0.1,0.6,0.1,1.2
					C191,8.2,191.8,7.7,193,7.7z"/>
				<path class="st0" d="M197.6,6.4c-0.2-0.2-0.3-0.4-0.3-0.7c0-0.3,0.1-0.5,0.3-0.7c0.2-0.2,0.4-0.3,0.7-0.3s0.5,0.1,0.7,0.3
					s0.3,0.4,0.3,0.7c0,0.3-0.1,0.5-0.3,0.7c-0.2,0.2-0.4,0.3-0.7,0.3S197.9,6.6,197.6,6.4z M197.7,15.4V7.9h1.4v7.5H197.7z"/>
				<path class="st0" d="M204.6,15.4h-1.3c-0.5-1-1-2.2-1.5-3.6c-0.5-1.4-0.9-2.7-1.2-3.9h1.5c0.2,0.9,0.5,2,0.8,3.2s0.7,2.1,1,2.8
					c0.3-0.7,0.6-1.6,1-2.8s0.7-2.3,0.8-3.2h1.5c-0.3,1.2-0.7,2.5-1.2,3.9C205.6,13.2,205.1,14.4,204.6,15.4z"/>
				<path class="st0" d="M212.1,12.1l-1.5,0.4c-0.5,0.1-0.7,0.4-0.7,0.7c0,0.3,0.1,0.5,0.4,0.8s0.7,0.4,1.2,0.4
					c0.9,0,1.9-0.2,2.8-0.7v1.2c-0.8,0.4-1.7,0.7-2.8,0.7c-1.1,0-1.9-0.4-2.5-1.1c-0.6-0.7-0.9-1.7-0.9-2.9c0-1.2,0.3-2.1,1-2.8
					s1.5-1.1,2.5-1.1c0.9,0,1.6,0.2,2.1,0.6c0.5,0.4,0.7,0.9,0.7,1.6c0,0.6-0.2,1.1-0.6,1.5C213.5,11.7,212.9,12,212.1,12.1z
					 M209.6,11.7v0.1c0.2-0.2,0.4-0.3,0.8-0.4l1.3-0.3c0.9-0.2,1.3-0.6,1.3-1.1c0-0.7-0.4-1-1.3-1c-0.6,0-1.1,0.2-1.5,0.7
					S209.6,10.9,209.6,11.7z"/>
				<path class="st0" d="M216.4,15.4V7.9h1.2c0.1,0.2,0.1,0.5,0.1,1c0.2-0.3,0.5-0.6,0.9-0.8c0.4-0.2,0.7-0.3,1.1-0.3
					c0.2,0,0.4,0,0.5,0.1v1.4c-0.3-0.1-0.5-0.1-0.7-0.1c-0.6,0-1.1,0.2-1.3,0.5c-0.3,0.3-0.4,0.8-0.4,1.4v4.4H216.4z"/>
				<path class="st0" d="M224.1,7.7c0.9,0,1.6,0.2,2.2,0.5v1.2c-0.7-0.4-1.5-0.5-2.2-0.5c-0.4,0-0.7,0.1-0.9,0.2
					c-0.2,0.2-0.3,0.4-0.3,0.7c0,0.3,0.1,0.5,0.3,0.6c0.2,0.1,0.5,0.3,1,0.5l0.8,0.3c1.1,0.4,1.7,1.1,1.7,2.1c0,0.8-0.3,1.4-0.8,1.8
					s-1.3,0.6-2.2,0.6c-0.7,0-1.5-0.2-2.2-0.5v-1.3c0.7,0.4,1.5,0.6,2.3,0.6c1,0,1.5-0.3,1.5-1c0-0.3-0.1-0.5-0.3-0.6
					s-0.5-0.3-0.9-0.5l-0.8-0.3c-0.6-0.2-1-0.5-1.3-0.8s-0.5-0.8-0.5-1.4c0-0.6,0.2-1.1,0.7-1.5C222.5,7.9,223.2,7.7,224.1,7.7z"/>
				<path class="st0" d="M228.7,6.4c-0.2-0.2-0.3-0.4-0.3-0.7c0-0.3,0.1-0.5,0.3-0.7c0.2-0.2,0.4-0.3,0.7-0.3s0.5,0.1,0.7,0.3
					s0.3,0.4,0.3,0.7c0,0.3-0.1,0.5-0.3,0.7c-0.2,0.2-0.4,0.3-0.7,0.3S228.9,6.6,228.7,6.4z M228.7,15.4V7.9h1.4v7.5H228.7z"/>
				<path class="st0" d="M238.5,4.8v10.7h-1.2c-0.1-0.2-0.1-0.5-0.1-0.9c-0.5,0.7-1.2,1.1-2,1.1c-1,0-1.8-0.4-2.3-1.1
					s-0.8-1.7-0.8-2.9c0-1.2,0.3-2.2,0.8-2.9c0.5-0.7,1.3-1.1,2.3-1.1c0.4,0,0.8,0.1,1.2,0.3s0.6,0.5,0.8,0.8V4.8H238.5z
					 M237.1,11.7c0-0.9-0.1-1.5-0.4-2c-0.3-0.5-0.7-0.7-1.4-0.7s-1.1,0.2-1.4,0.7s-0.4,1.1-0.4,2c0,1.8,0.6,2.7,1.8,2.7
					C236.5,14.4,237.1,13.5,237.1,11.7z"/>
				<path class="st0" d="M246.4,10.4v5h-1.2c-0.1-0.2-0.1-0.5-0.1-0.8c-0.4,0.4-0.7,0.6-1.1,0.8c-0.4,0.1-0.8,0.2-1.3,0.2
					c-0.6,0-1.1-0.2-1.5-0.6c-0.4-0.4-0.6-0.9-0.6-1.5c0-1.1,0.8-1.9,2.3-2.4l1.3-0.4c0.4-0.1,0.6-0.2,0.8-0.4s0.2-0.3,0.2-0.5
					c0-0.3-0.1-0.5-0.3-0.6s-0.6-0.3-1-0.3c-0.8,0-1.7,0.2-2.6,0.5V8.3c0.6-0.3,1.5-0.5,2.6-0.5c0.9,0,1.6,0.2,2.1,0.6
					C246.2,8.8,246.4,9.5,246.4,10.4z M245,12.8v-1.4c-0.2,0.2-0.4,0.3-0.6,0.4l-1.2,0.4c-0.5,0.1-0.8,0.3-1,0.5s-0.2,0.4-0.2,0.7
					c0,0.3,0.1,0.6,0.3,0.8s0.5,0.3,0.8,0.3c0.6,0,1.1-0.1,1.5-0.4C244.8,13.6,245,13.3,245,12.8z"/>
				<path class="st0" d="M254.8,4.8v10.7h-1.2c-0.1-0.2-0.1-0.5-0.1-0.9c-0.5,0.7-1.2,1.1-2,1.1c-1,0-1.8-0.4-2.3-1.1
					s-0.8-1.7-0.8-2.9c0-1.2,0.3-2.2,0.8-2.9c0.5-0.7,1.3-1.1,2.3-1.1c0.4,0,0.8,0.1,1.2,0.3s0.6,0.5,0.8,0.8V4.8H254.8z
					 M253.3,11.7c0-0.9-0.1-1.5-0.4-2c-0.3-0.5-0.7-0.7-1.4-0.7s-1.1,0.2-1.4,0.7s-0.4,1.1-0.4,2c0,1.8,0.6,2.7,1.8,2.7
					C252.7,14.4,253.3,13.5,253.3,11.7z"/>
				<path class="st0" d="M182.4,25.6c1.1,0,2,0.2,2.9,0.6V28c-1-0.4-2-0.6-3-0.6c-0.4,0-0.8,0.1-1.1,0.3c-0.3,0.2-0.4,0.5-0.4,0.8
					c0,0.3,0.1,0.5,0.3,0.7c0.2,0.2,0.5,0.3,1,0.5l1.3,0.4c1.6,0.5,2.3,1.5,2.3,3c0,1-0.4,1.8-1.1,2.3c-0.7,0.5-1.7,0.8-3,0.8
					c-1.1,0-2.1-0.2-3.1-0.7v-1.9c1.1,0.5,2.1,0.8,3.1,0.8c0.5,0,0.9-0.1,1.3-0.3c0.4-0.2,0.5-0.5,0.5-0.9c0-0.3-0.1-0.6-0.4-0.8
					c-0.3-0.2-0.6-0.4-1.2-0.6l-1.1-0.4c-1.6-0.5-2.3-1.5-2.3-3c0-0.9,0.3-1.7,1-2.2C180.3,25.8,181.2,25.6,182.4,25.6z"/>
				<path class="st0" d="M191.3,32.9l-1.3,0.3c-0.4,0.1-0.5,0.3-0.5,0.6c0,0.2,0.1,0.4,0.3,0.6s0.5,0.3,0.9,0.3c1,0,2-0.2,3.1-0.7
					v1.7c-0.8,0.5-1.9,0.7-3.1,0.7c-1.1,0-2-0.4-2.6-1.1c-0.6-0.7-0.9-1.7-0.9-2.9c0-1.2,0.3-2.1,1-2.9c0.7-0.7,1.6-1.1,2.7-1.1
					c1,0,1.7,0.2,2.2,0.6s0.8,1,0.8,1.6c0,0.6-0.2,1.1-0.6,1.5S192.2,32.7,191.3,32.9z M190.8,30c-0.5,0-0.9,0.2-1.2,0.6
					c-0.3,0.4-0.4,0.9-0.4,1.5v0.1c0.1-0.1,0.3-0.2,0.6-0.3l0.9-0.2c0.7-0.2,1-0.5,1-0.9c0-0.2-0.1-0.4-0.2-0.6
					C191.3,30.1,191.1,30,190.8,30z"/>
				<path class="st0" d="M199.7,28.4c1.1,0,1.9,0.4,2.3,1.3c0.2,0.5,0.3,1.1,0.3,2v4.3h-2.1v-3.9c0-0.7,0-1.2-0.1-1.5
					c-0.1-0.4-0.5-0.6-0.9-0.6c-0.5,0-0.9,0.2-1.1,0.5c-0.2,0.3-0.4,0.9-0.4,1.7v3.8h-2.1v-7.5h1.7c0.1,0.2,0.1,0.6,0.1,1
					c0.2-0.4,0.5-0.6,0.9-0.9C198.7,28.5,199.2,28.4,199.7,28.4z M200.1,27.6c-0.3,0-0.7-0.1-1.1-0.3c-0.4-0.2-0.7-0.3-0.8-0.3
					c-0.1,0-0.3,0.1-0.4,0.2c-0.1,0.1-0.1,0.3-0.1,0.4h-1.3c0-0.6,0.1-1.1,0.4-1.5c0.3-0.4,0.7-0.6,1.3-0.6c0.3,0,0.7,0.1,1.1,0.3
					c0.4,0.2,0.7,0.3,0.8,0.3c0.1,0,0.3-0.1,0.4-0.2c0.1-0.1,0.1-0.2,0.1-0.4h1.3c0,0.6-0.1,1.1-0.4,1.5
					C201.1,27.4,200.7,27.6,200.1,27.6z"/>
				<path class="st0" d="M209.9,29.4c0.6,0.7,0.9,1.7,0.9,2.9c0,1.2-0.3,2.2-0.9,2.9c-0.6,0.7-1.5,1.1-2.6,1.1c-1.1,0-2-0.4-2.6-1.1
					c-0.6-0.7-0.9-1.7-0.9-2.9c0-1.2,0.3-2.2,0.9-2.9c0.6-0.7,1.5-1.1,2.6-1.1C208.5,28.4,209.3,28.7,209.9,29.4z M207.3,34.6
					c0.9,0,1.4-0.8,1.4-2.3c0-1.5-0.5-2.3-1.4-2.3c-0.9,0-1.4,0.8-1.4,2.3C205.9,33.8,206.4,34.6,207.3,34.6z"/>
				<path class="st0" d="M212.5,36.1v-7.5h1.7c0.1,0.2,0.1,0.6,0.1,1c0.2-0.3,0.4-0.6,0.7-0.8c0.3-0.2,0.7-0.3,1.2-0.3
					c0.2,0,0.4,0,0.6,0.1v1.9c-0.2-0.1-0.5-0.1-0.9-0.1c-0.9,0-1.4,0.5-1.4,1.5v4.3H212.5z"/>
				<path class="st0" d="M228.1,25.4v10.7h-1.7c-0.1-0.2-0.1-0.5-0.1-0.9c-0.2,0.3-0.5,0.6-0.8,0.8c-0.4,0.2-0.8,0.3-1.2,0.3
					c-2,0-3-1.3-3-3.9c0-2.6,1-3.9,3-3.9c0.4,0,0.8,0.1,1.2,0.3s0.6,0.4,0.8,0.7v-3.9H228.1z M226,32.3c0-0.7-0.1-1.3-0.3-1.7
					c-0.2-0.4-0.6-0.6-1.1-0.6c-0.5,0-0.9,0.2-1.1,0.6c-0.2,0.4-0.3,0.9-0.3,1.7c0,1.5,0.5,2.3,1.4,2.3
					C225.6,34.6,226,33.8,226,32.3z"/>
				<path class="st0" d="M234,32.9l-1.3,0.3c-0.4,0.1-0.5,0.3-0.5,0.6c0,0.2,0.1,0.4,0.3,0.6s0.5,0.3,0.9,0.3c1,0,2-0.2,3.1-0.7v1.7
					c-0.8,0.5-1.9,0.7-3.1,0.7c-1.1,0-2-0.4-2.6-1.1c-0.6-0.7-0.9-1.7-0.9-2.9c0-1.2,0.3-2.1,1-2.9c0.7-0.7,1.6-1.1,2.7-1.1
					c1,0,1.7,0.2,2.2,0.6s0.8,1,0.8,1.6c0,0.6-0.2,1.1-0.6,1.5S234.9,32.7,234,32.9z M233.5,30c-0.5,0-0.9,0.2-1.2,0.6
					c-0.3,0.4-0.4,0.9-0.4,1.5v0.1c0.1-0.1,0.3-0.2,0.6-0.3l0.9-0.2c0.7-0.2,1-0.5,1-0.9c0-0.2-0.1-0.4-0.2-0.6
					C234,30.1,233.8,30,233.5,30z"/>
				<path class="st0" d="M245,25.6c1.1,0,2,0.2,2.9,0.6V28c-1-0.4-2-0.6-3-0.6c-0.4,0-0.8,0.1-1.1,0.3c-0.3,0.2-0.4,0.5-0.4,0.8
					c0,0.3,0.1,0.5,0.3,0.7c0.2,0.2,0.5,0.3,1,0.5l1.3,0.4c1.6,0.5,2.3,1.5,2.3,3c0,1-0.4,1.8-1.1,2.3c-0.7,0.5-1.7,0.8-3,0.8
					c-1.1,0-2.1-0.2-3.1-0.7v-1.9c1.1,0.5,2.1,0.8,3.1,0.8c0.5,0,0.9-0.1,1.3-0.3c0.4-0.2,0.5-0.5,0.5-0.9c0-0.3-0.1-0.6-0.4-0.8
					c-0.3-0.2-0.6-0.4-1.2-0.6l-1.1-0.4c-1.6-0.5-2.3-1.5-2.3-3c0-0.9,0.3-1.7,1-2.2C242.9,25.8,243.8,25.6,245,25.6z"/>
				<path class="st0" d="M250.3,27.2c-0.3-0.3-0.4-0.6-0.4-0.9c0-0.4,0.1-0.7,0.4-0.9c0.3-0.3,0.6-0.4,0.9-0.4
					c0.4,0,0.7,0.1,0.9,0.4c0.3,0.3,0.4,0.6,0.4,0.9c0,0.4-0.1,0.7-0.4,0.9c-0.3,0.3-0.6,0.4-0.9,0.4
					C250.8,27.6,250.5,27.5,250.3,27.2z M250.2,36.1v-7.5h2.1v7.5H250.2z"/>
				<path class="st0" d="M258.3,28.4c2,0,3.1,1.3,3.1,3.9c0,1.2-0.2,2.2-0.7,2.9s-1.2,1-2.3,1c-0.5,0-0.8-0.1-1.2-0.3
					s-0.6-0.4-0.7-0.7V39h-2.1V28.5h1.7c0.1,0.2,0.1,0.5,0.1,0.9C256.7,28.7,257.4,28.4,258.3,28.4z M257.9,30
					c-0.9,0-1.4,0.8-1.4,2.3c0,1.5,0.5,2.3,1.4,2.3c0.9,0,1.4-0.8,1.4-2.3C259.3,30.8,258.8,30,257.9,30z"/>
				<path class="st0" d="M269.1,31.1v4.9h-1.7c-0.1-0.2-0.1-0.5-0.1-0.8c-0.5,0.7-1.3,1-2.3,1c-0.7,0-1.2-0.2-1.7-0.6
					c-0.4-0.4-0.6-0.9-0.6-1.5c0-0.6,0.2-1.1,0.6-1.5c0.4-0.4,1-0.7,1.8-0.9l1.2-0.3c0.3-0.1,0.5-0.2,0.6-0.3
					c0.1-0.1,0.2-0.3,0.2-0.4c0-0.4-0.4-0.6-1.1-0.6c-0.9,0-1.8,0.2-2.7,0.5v-1.7c0.7-0.3,1.7-0.5,2.9-0.5c1,0,1.7,0.2,2.2,0.6
					S269.1,30.1,269.1,31.1z M267,33.3v-1c-0.1,0.1-0.3,0.2-0.5,0.2l-0.9,0.3c-0.4,0.1-0.6,0.2-0.8,0.4s-0.2,0.4-0.2,0.6
					s0.1,0.4,0.2,0.6s0.4,0.2,0.6,0.2c0.4,0,0.8-0.1,1-0.4C266.9,34.1,267,33.8,267,33.3z M265.3,27.5l1.1-2.1h2.4l-1.7,2.1H265.3z"
					/>
				<path class="st0" d="M275.3,28.4c1.1,0,1.9,0.4,2.3,1.3c0.2,0.5,0.3,1.1,0.3,2v4.3h-2.1v-3.9c0-0.7,0-1.2-0.1-1.5
					c-0.1-0.4-0.5-0.6-0.9-0.6c-0.5,0-0.9,0.2-1.1,0.5c-0.2,0.3-0.4,0.9-0.4,1.7v3.8h-2.1v-7.5h1.7c0.1,0.2,0.1,0.6,0.1,1
					c0.2-0.4,0.5-0.6,0.9-0.9C274.3,28.5,274.8,28.4,275.3,28.4z"/>
			</g>
		</g>
	</g>
</g>
</svg>
