<?xml version="1.0" encoding="utf-8"?>
<!-- Generator: Adobe Illustrator 28.0.0, SVG Export Plug-In . SVG Version: 6.00 Build 0)  -->
<svg version="1.1" id="Capa_1" xmlns="http://www.w3.org/2000/svg" xmlns:xlink="http://www.w3.org/1999/xlink" x="0px" y="0px"
	 viewBox="0 0 209 119" style="enable-background:new 0 0 209 119;" xml:space="preserve">
<style type="text/css">
	.st0{fill:#454545;}
</style>
<g>
	<g>
		<polygon class="st0" points="195.83,42.64 195.83,11.46 145.56,11.46 145.56,52.49 181.83,67.86 181.83,83.38 195.83,83.38 
			195.83,58.23 159.55,42.86 159.55,25.6 181.83,25.6 181.83,36.71 		"/>
		<polygon class="st0" points="145.56,83.38 181.53,83.38 145.56,68.05 		"/>
		<polygon class="st0" points="131.26,42.64 131.26,11.46 80.99,11.46 80.99,52.49 117.26,67.86 117.26,83.38 131.26,83.38 
			131.26,58.23 94.98,42.86 94.98,25.6 117.26,25.6 117.26,36.71 		"/>
		<polygon class="st0" points="80.99,83.38 116.96,83.38 80.99,68.05 		"/>
		<polygon class="st0" points="52.86,17.59 52.86,69.34 30.55,69.34 30.55,17.59 16.57,11.63 16.57,83.38 66.84,83.38 66.84,11.63 
					"/>
	</g>
	<g>
		<path class="st0" d="M16.55,111.03V98.92h-3.84v-1.22h9v1.22h-3.84v12.11H16.55z"/>
		<path class="st0" d="M23.08,111.03v-9.74h1.13c0.06,0.32,0.1,0.75,0.1,1.28c0.64-0.98,1.47-1.47,2.5-1.47
			c0.36,0,0.64,0.03,0.84,0.08v1.39c-0.34-0.11-0.67-0.17-0.97-0.17c-0.8,0-1.39,0.22-1.76,0.67c-0.37,0.45-0.55,1.14-0.55,2.08
			v5.88H23.08z"/>
		<path class="st0" d="M36.08,103.92v7.11h-1.13c-0.08-0.38-0.11-0.78-0.11-1.18c-0.51,0.55-1.02,0.91-1.54,1.09
			c-0.52,0.18-1.11,0.27-1.77,0.27c-0.79,0-1.45-0.25-1.98-0.74c-0.53-0.49-0.79-1.12-0.79-1.88c0-1.62,0.94-2.67,2.83-3.17
			l1.7-0.46c0.55-0.15,0.94-0.34,1.17-0.55c0.23-0.22,0.34-0.49,0.34-0.82c0-0.89-0.66-1.34-1.99-1.34c-0.98,0-2.06,0.22-3.25,0.67
			v-1.2c0.88-0.42,1.92-0.63,3.11-0.63c1.16,0,2.02,0.22,2.57,0.65C35.8,102.16,36.08,102.89,36.08,103.92z M34.8,107.55v-2.08
			c-0.31,0.25-0.72,0.46-1.24,0.61l-1.61,0.46c-0.76,0.22-1.27,0.49-1.51,0.82c-0.24,0.33-0.36,0.72-0.36,1.17
			c0,0.47,0.16,0.84,0.47,1.11c0.31,0.27,0.72,0.4,1.23,0.4c0.99,0,1.74-0.23,2.25-0.68C34.54,108.9,34.8,108.3,34.8,107.55z"/>
		<path class="st0" d="M43.79,101.07c0.5,0,1,0.13,1.5,0.39c0.5,0.26,0.89,0.68,1.16,1.27c0.23,0.51,0.34,1.36,0.34,2.56v5.73h-1.28
			v-5.06c0-1.13-0.06-1.91-0.19-2.33c-0.27-0.85-0.88-1.28-1.83-1.28c-1.95,0-2.92,1.25-2.92,3.75v4.93h-1.28v-9.74h1.13
			c0.08,0.38,0.11,0.92,0.11,1.62C41.14,101.69,42.23,101.07,43.79,101.07z"/>
		<path class="st0" d="M52.91,101.07c1.04,0,1.95,0.22,2.71,0.65v1.26c-0.96-0.52-1.92-0.78-2.89-0.78c-0.57,0-1.03,0.13-1.36,0.38
			c-0.33,0.25-0.5,0.6-0.5,1.05c0,0.42,0.12,0.75,0.37,0.98c0.25,0.24,0.74,0.47,1.48,0.72l1.11,0.36c0.74,0.25,1.28,0.59,1.63,1
			c0.35,0.41,0.53,0.95,0.53,1.6c0,0.96-0.32,1.68-0.96,2.19c-0.64,0.5-1.57,0.76-2.81,0.76c-0.87,0-1.76-0.21-2.69-0.63v-1.22
			c0.9,0.48,1.81,0.73,2.73,0.73c1.61,0,2.41-0.52,2.41-1.57c0-0.41-0.13-0.74-0.38-0.98c-0.25-0.25-0.71-0.49-1.38-0.72l-1.09-0.38
			c-0.76-0.27-1.33-0.6-1.71-1c-0.38-0.4-0.56-0.97-0.56-1.71c0-0.75,0.28-1.38,0.85-1.9C50.98,101.33,51.81,101.07,52.91,101.07z"
			/>
		<path class="st0" d="M59.31,111.03v-8.65h-1.39v-1.09h1.39v-1.38c0-0.93,0.24-1.65,0.71-2.16c0.47-0.51,1.14-0.76,2.01-0.76
			c0.5,0,0.96,0.07,1.38,0.21v1.28c-0.41-0.2-0.84-0.31-1.3-0.31c-1.01,0-1.51,0.58-1.51,1.74v1.38h2.31v1.09h-2.31v8.65H59.31z"/>
		<path class="st0" d="M71.47,102.45c0.73,0.92,1.1,2.15,1.1,3.71c0,1.55-0.37,2.79-1.1,3.71c-0.73,0.92-1.76,1.38-3.09,1.38
			c-1.33,0-2.35-0.46-3.09-1.38c-0.73-0.92-1.1-2.15-1.1-3.71c0-1.55,0.37-2.79,1.1-3.71c0.73-0.92,1.76-1.38,3.09-1.38
			C69.71,101.07,70.74,101.53,71.47,102.45z M70.55,109.03c0.46-0.69,0.7-1.65,0.7-2.88c0-1.22-0.23-2.18-0.7-2.88
			c-0.47-0.69-1.19-1.04-2.17-1.04c-0.98,0-1.7,0.35-2.17,1.04c-0.46,0.69-0.7,1.65-0.7,2.88c0,1.22,0.23,2.18,0.7,2.88
			c0.46,0.69,1.19,1.04,2.17,1.04C69.36,110.07,70.09,109.73,70.55,109.03z"/>
		<path class="st0" d="M75.24,111.03v-9.74h1.13c0.06,0.32,0.1,0.75,0.1,1.28c0.64-0.98,1.47-1.47,2.5-1.47
			c0.36,0,0.64,0.03,0.84,0.08v1.39c-0.34-0.11-0.67-0.17-0.97-0.17c-0.8,0-1.39,0.22-1.76,0.67c-0.37,0.45-0.55,1.14-0.55,2.08
			v5.88H75.24z"/>
		<path class="st0" d="M86.34,101.07c1.44,0,2.38,0.66,2.83,1.99c0.64-1.32,1.77-1.99,3.4-1.99c0.5,0,0.99,0.13,1.49,0.39
			c0.5,0.26,0.88,0.69,1.17,1.29c0.23,0.5,0.34,1.34,0.34,2.54v5.73h-1.28v-5.06c0-1.24-0.04-2.01-0.13-2.33
			c-0.25-0.85-0.87-1.28-1.85-1.28c-1.94,0-2.9,1.25-2.9,3.75v4.93h-1.28v-5.06c0-1.24-0.05-2.01-0.13-2.33
			c-0.25-0.85-0.87-1.28-1.85-1.28c-1.94,0-2.9,1.25-2.9,3.75v4.93h-1.28v-9.74h1.13c0.08,0.38,0.11,0.92,0.11,1.62
			C83.83,101.69,84.88,101.07,86.34,101.07z"/>
		<path class="st0" d="M105.52,103.92v7.11h-1.13c-0.08-0.38-0.11-0.78-0.11-1.18c-0.51,0.55-1.02,0.91-1.54,1.09
			s-1.11,0.27-1.77,0.27c-0.79,0-1.45-0.25-1.98-0.74c-0.53-0.49-0.79-1.12-0.79-1.88c0-1.62,0.94-2.67,2.83-3.17l1.7-0.46
			c0.55-0.15,0.94-0.34,1.17-0.55c0.23-0.22,0.34-0.49,0.34-0.82c0-0.89-0.66-1.34-1.99-1.34c-0.98,0-2.06,0.22-3.25,0.67v-1.2
			c0.88-0.42,1.92-0.63,3.11-0.63c1.16,0,2.02,0.22,2.57,0.65C105.25,102.16,105.52,102.89,105.52,103.92z M104.24,107.55v-2.08
			c-0.31,0.25-0.72,0.46-1.24,0.61l-1.61,0.46c-0.76,0.22-1.27,0.49-1.51,0.82c-0.24,0.33-0.36,0.72-0.36,1.17
			c0,0.47,0.16,0.84,0.47,1.11c0.31,0.27,0.72,0.4,1.23,0.4c0.99,0,1.74-0.23,2.25-0.68C103.99,108.9,104.24,108.3,104.24,107.55z"
			/>
		<path class="st0" d="M113.64,107.86v-4.53h-1.24v-2.04h1.24v-2.2c0.64-0.34,1.54-0.57,2.69-0.67v2.87h2.25v2.04h-2.25v4.32
			c0,0.57,0.08,0.96,0.25,1.15c0.17,0.19,0.46,0.29,0.88,0.29c0.47,0,0.95-0.08,1.43-0.23v2.14c-0.5,0.17-1.17,0.25-2.03,0.25
			c-1.15,0-1.97-0.28-2.47-0.84C113.9,109.84,113.64,108.99,113.64,107.86z"/>
		<path class="st0" d="M123.79,111.3c-1.5,0-2.48-0.57-2.94-1.72c-0.23-0.56-0.34-1.45-0.34-2.66v-5.64h2.69v5.06
			c0,0.88,0.07,1.51,0.21,1.89c0.19,0.55,0.59,0.82,1.2,0.82c0.64,0,1.11-0.22,1.42-0.66c0.31-0.44,0.47-1.17,0.47-2.19v-4.93h2.69
			v9.74h-2.25c-0.13-0.31-0.19-0.75-0.19-1.32c-0.24,0.46-0.62,0.84-1.14,1.14S124.49,111.3,123.79,111.3z"/>
		<path class="st0" d="M141.75,101.04c1.44,0,2.38,0.56,2.83,1.68c0.24-0.47,0.63-0.87,1.16-1.19c0.53-0.33,1.12-0.49,1.79-0.49
			c1.41,0,2.36,0.57,2.85,1.72c0.24,0.59,0.36,1.46,0.36,2.64v5.64h-2.69v-5.04c0-0.93-0.06-1.57-0.17-1.91
			c-0.19-0.53-0.56-0.8-1.11-0.8c-0.61,0-1.07,0.22-1.37,0.67c-0.3,0.45-0.45,1.17-0.45,2.16v4.93h-2.69v-5.04
			c0-0.97-0.06-1.61-0.17-1.91c-0.19-0.53-0.55-0.8-1.09-0.8c-0.61,0-1.07,0.22-1.38,0.66c-0.31,0.44-0.46,1.16-0.46,2.17v4.93
			h-2.69v-9.74h2.25c0.13,0.32,0.19,0.76,0.19,1.34c0.23-0.46,0.6-0.84,1.1-1.14C140.5,101.19,141.09,101.04,141.75,101.04z"/>
		<path class="st0" d="M156.57,111.3c-1.5,0-2.48-0.57-2.94-1.72c-0.23-0.56-0.34-1.45-0.34-2.66v-5.64h2.69v5.06
			c0,0.88,0.07,1.51,0.21,1.89c0.19,0.55,0.59,0.82,1.2,0.82c0.64,0,1.11-0.22,1.42-0.66c0.31-0.44,0.47-1.17,0.47-2.19v-4.93h2.69
			v9.74h-2.25c-0.13-0.31-0.19-0.75-0.19-1.32c-0.24,0.46-0.62,0.84-1.14,1.14C157.88,111.15,157.27,111.3,156.57,111.3z"/>
		<path class="st0" d="M170.18,101.04c1.49,0,2.46,0.57,2.92,1.72c0.24,0.59,0.36,1.46,0.36,2.64v5.64h-2.69v-5.04
			c0-0.9-0.06-1.54-0.19-1.91c-0.19-0.53-0.6-0.8-1.22-0.8c-0.64,0-1.12,0.22-1.44,0.65c-0.33,0.43-0.49,1.16-0.49,2.18v4.93h-2.69
			v-9.74h2.25c0.13,0.32,0.19,0.76,0.19,1.34c0.23-0.46,0.61-0.84,1.15-1.14C168.86,101.19,169.48,101.04,170.18,101.04z"/>
		<path class="st0" d="M184.62,97.2v13.83h-2.25c-0.11-0.27-0.17-0.66-0.17-1.17c-0.25,0.41-0.62,0.75-1.1,1.01
			c-0.48,0.27-1,0.4-1.58,0.4c-2.64,0-3.96-1.71-3.96-5.12c0-3.41,1.29-5.12,3.86-5.12c0.57,0,1.08,0.12,1.53,0.37
			s0.77,0.54,0.97,0.89v-5.1H184.62z M181.93,106.16c0-0.97-0.14-1.7-0.42-2.19c-0.28-0.49-0.74-0.74-1.39-0.74
			s-1.11,0.25-1.39,0.74c-0.28,0.49-0.42,1.22-0.42,2.19c0,1.97,0.6,2.96,1.81,2.96C181.32,109.12,181.93,108.13,181.93,106.16z"/>
		<path class="st0" d="M194.67,102.41c0.79,0.92,1.18,2.17,1.18,3.74c0,1.58-0.4,2.83-1.18,3.74c-0.79,0.92-1.91,1.38-3.36,1.38
			c-1.45,0-2.57-0.46-3.36-1.38c-0.79-0.92-1.18-2.16-1.18-3.74c0-1.58,0.39-2.83,1.18-3.74c0.79-0.92,1.91-1.38,3.36-1.38
			C192.76,101.04,193.88,101.49,194.67,102.41z M191.31,109.12c1.21,0,1.81-0.99,1.81-2.96c0-1.97-0.6-2.96-1.81-2.96
			c-1.21,0-1.81,0.99-1.81,2.96C189.49,108.13,190.1,109.12,191.31,109.12z"/>
	</g>
</g>
</svg>
