<?xml version="1.0" encoding="UTF-8"?>
<svg id="Capa_1" xmlns="http://www.w3.org/2000/svg" version="1.1" viewBox="0 0 1679.63 1087.92">
  <!-- Generator: Adobe Illustrator 29.4.0, SVG Export Plug-In . SVG Version: 2.1.0 Build 152)  -->
  <defs>
    <style>
      .st0 {
        fill: #768189;
      }

      .st1 {
        fill: #675787;
      }

      .st2 {
        fill: #634d87;
      }

      .st3 {
        fill: #582d85;
      }

      .st4 {
        fill: #88b68c;
      }

      .st5 {
        fill: #97e08e;
      }

      .st6 {
        fill: #6b6288;
      }

      .st7 {
        fill: #93d58d;
      }

      .st8 {
        fill: #5c3886;
      }

      .st9 {
        fill: #798c8a;
      }

      .st10 {
        fill: #6e6c88;
      }

      .st11 {
        fill: #5f4286;
      }

      .st12 {
        fill: #81a18b;
      }

      .st13 {
        fill: #84ab8b;
      }

      .st14 {
        fill: #727789;
      }

      .st15 {
        fill: #7d968a;
      }

      .st16 {
        fill: #90cb8d;
      }

      .st17 {
        fill: #8cc08c;
      }
    </style>
  </defs>
  <path class="st3" d="M275.27,799.02H.28c-.16,0-.28-.13-.28-.28s.13-.28.28-.28h274.99c31.89,0,57.83-25.94,57.83-57.83v-63.09c0-32.2,26.19-58.39,58.39-58.39h343.03c31.89,0,57.83-25.94,57.83-57.83v-62.95c0-32.2,26.2-58.39,58.39-58.39h342.79c31.89,0,57.83-25.94,57.83-57.83v-62.34c0-32.2,26.2-58.39,58.39-58.39h304.42c.16,0,.28.13.28.28s-.13.28-.28.28h-304.42c-31.89,0-57.83,25.94-57.83,57.83v62.34c0,32.2-26.2,58.39-58.39,58.39h-342.79c-31.89,0-57.83,25.94-57.83,57.83v62.95c0,32.2-26.2,58.39-58.39,58.39h-343.03c-31.89,0-57.83,25.94-57.83,57.83v63.09c0,32.2-26.19,58.39-58.39,58.39Z"/>
  <path class="st8" d="M22.11,816.01c-.15,0-.28-.12-.28-.28,0-.16.12-.28.28-.29l273.88-5.88c15.38-.33,29.72-6.63,40.36-17.74,10.64-11.11,16.32-25.7,15.99-41.09l-1.35-62.84c-.69-32.07,24.84-58.72,56.91-59.41l341.65-7.34c15.38-.33,29.72-6.63,40.36-17.74,10.64-11.11,16.33-25.7,15.99-41.09l-1.35-62.7c-.33-15.54,5.4-30.27,16.15-41.49,10.75-11.22,25.22-17.58,40.76-17.92l341.41-7.33c15.38-.33,29.72-6.63,40.36-17.74,10.64-11.11,16.32-25.7,15.99-41.09l-1.33-62.09c-.69-32.07,24.84-58.72,56.91-59.41l303.19-6.51c.16-.03.28.12.29.28,0,.16-.12.28-.28.29l-303.19,6.51c-31.76.68-57.04,27.08-56.36,58.83l1.33,62.09c.69,32.07-24.84,58.72-56.91,59.41l-341.41,7.33c-15.38.33-29.72,6.63-40.36,17.74s-16.33,25.7-15.99,41.09l1.35,62.7c.33,15.54-5.4,30.27-16.15,41.49-10.75,11.22-25.22,17.58-40.76,17.92l-341.65,7.34c-31.76.68-57.04,27.07-56.36,58.83l1.35,62.84c.33,15.54-5.4,30.27-16.15,41.49-10.75,11.22-25.22,17.58-40.76,17.92l-273.88,5.88h0Z"/>
  <path class="st11" d="M43.94,833.01c-.15,0-.28-.12-.28-.27,0-.16.11-.29.27-.29l272.77-11.77c31.63-1.37,56.25-28.21,54.89-59.84l-2.7-62.58c-.67-15.47,4.73-30.28,15.2-41.69,10.47-11.41,24.75-18.07,40.23-18.73l340.26-14.68c31.63-1.37,56.25-28.21,54.89-59.84l-2.69-62.45c-.67-15.47,4.73-30.28,15.2-41.69,10.47-11.41,24.75-18.07,40.23-18.73l340.03-14.67c31.63-1.37,56.25-28.21,54.89-59.84l-2.67-61.84c-.67-15.47,4.73-30.28,15.2-41.69,10.47-11.41,24.75-18.07,40.23-18.73l301.96-13.03c.15,0,.29.11.29.27,0,.16-.11.29-.27.29l-301.96,13.03c-15.32.66-29.47,7.25-39.84,18.55-10.37,11.3-15.71,25.96-15.05,41.29l2.67,61.84c.67,15.47-4.73,30.28-15.2,41.69-10.47,11.41-24.75,18.07-40.23,18.73l-340.03,14.67c-15.32.66-29.47,7.25-39.84,18.55-10.37,11.3-15.71,25.96-15.05,41.29l2.69,62.45c1.38,31.94-23.49,59.05-55.43,60.42l-340.27,14.68c-15.32.66-29.47,7.25-39.84,18.55s-15.71,25.96-15.05,41.29l2.7,62.59c1.38,31.94-23.49,59.05-55.43,60.42l-272.77,11.77s0,0-.01,0Z"/>
  <path class="st2" d="M65.77,850c-.15,0-.27-.12-.28-.26-.01-.16.11-.29.26-.3l271.67-17.65c31.5-2.05,55.46-29.34,53.42-60.84l-4.05-62.33c-1-15.41,4.06-30.29,14.25-41.89,10.19-11.6,24.29-18.55,39.69-19.55l338.88-22.02c15.26-.99,29.22-7.87,39.31-19.36s15.1-26.22,14.11-41.48l-4.04-62.19c-1-15.41,4.06-30.29,14.25-41.89,10.19-11.6,24.29-18.55,39.7-19.55l338.65-22.01c15.26-.99,29.22-7.87,39.31-19.36s15.1-26.22,14.11-41.48l-4-61.59c-1-15.41,4.06-30.29,14.25-41.89,10.19-11.6,24.29-18.55,39.7-19.55l300.74-19.54c.17-.02.29.11.3.26,0,.16-.11.29-.26.3l-300.74,19.54c-31.5,2.05-55.46,29.34-53.42,60.84l4,61.59c1,15.41-4.06,30.29-14.25,41.89s-24.29,18.55-39.7,19.55l-338.65,22.01c-15.26.99-29.22,7.87-39.31,19.36s-15.1,26.22-14.11,41.48l4.04,62.19c2.07,31.81-22.13,59.37-53.94,61.44l-338.88,22.02c-31.5,2.05-55.46,29.34-53.42,60.84l4.05,62.33c1,15.41-4.06,30.29-14.25,41.89-10.19,11.6-24.29,18.55-39.7,19.55l-271.67,17.65s-.01,0-.02,0Z"/>
  <path class="st1" d="M87.6,867c-.14,0-.27-.11-.28-.26-.01-.16.1-.29.26-.31l270.56-23.54c31.37-2.73,54.67-30.47,51.95-61.84l-5.4-62.08c-2.76-31.68,20.78-59.7,52.46-62.46l337.5-29.36c15.2-1.32,28.97-8.48,38.78-20.16,9.81-11.68,14.49-26.48,13.16-41.68l-5.39-61.94c-1.33-15.35,3.39-30.3,13.29-42.09,9.91-11.8,23.82-19.03,39.16-20.36l337.26-29.34c15.2-1.32,28.97-8.48,38.78-20.16,9.81-11.68,14.49-26.48,13.16-41.68l-5.34-61.34c-2.76-31.68,20.78-59.7,52.46-62.45l299.51-26.06c.18-.01.29.1.31.26.01.16-.1.29-.26.31l-299.51,26.06c-31.37,2.73-54.67,30.47-51.94,61.84l5.34,61.34c1.33,15.35-3.39,30.29-13.29,42.09-9.91,11.8-23.82,19.03-39.16,20.36l-337.26,29.34c-15.2,1.32-28.97,8.48-38.78,20.16-9.81,11.68-14.49,26.48-13.16,41.68l5.39,61.94c1.33,15.35-3.39,30.29-13.29,42.09-9.91,11.8-23.82,19.03-39.16,20.36l-337.5,29.36c-31.37,2.73-54.67,30.47-51.94,61.84l5.4,62.08c2.76,31.68-20.78,59.7-52.46,62.46l-270.56,23.54s-.02,0-.02,0Z"/>
  <path class="st6" d="M109.43,883.99c-.14,0-.26-.11-.28-.25-.02-.15.09-.29.25-.31l269.45-29.42c15.13-1.65,28.72-9.1,38.25-20.97,9.53-11.87,13.87-26.74,12.22-41.88l-6.75-61.82c-1.67-15.28,2.71-30.3,12.34-42.29,9.63-11.99,23.35-19.51,38.63-21.18l336.12-36.7c15.13-1.65,28.72-9.1,38.25-20.97,9.53-11.87,13.87-26.74,12.22-41.88l-6.74-61.69c-3.45-31.55,19.42-60.02,50.97-63.47l335.88-36.68c31.24-3.41,53.88-31.61,50.47-62.85l-6.67-61.09c-3.45-31.55,19.42-60.02,50.97-63.47l298.28-32.57c.15,0,.29.1.31.25.02.15-.09.29-.25.31l-298.28,32.57c-31.24,3.41-53.88,31.6-50.47,62.85l6.67,61.09c3.45,31.55-19.42,60.02-50.97,63.47l-335.88,36.68c-15.13,1.65-28.72,9.1-38.25,20.97s-13.87,26.74-12.22,41.88l6.74,61.69c1.67,15.28-2.71,30.3-12.34,42.29-9.63,11.99-23.35,19.51-38.63,21.18l-336.12,36.7c-15.13,1.65-28.72,9.1-38.25,20.97-9.53,11.87-13.87,26.74-12.22,41.88l6.75,61.82c1.67,15.28-2.71,30.3-12.34,42.29-9.63,11.99-23.35,19.51-38.63,21.18l-269.45,29.42s-.02,0-.03,0Z"/>
  <path class="st10" d="M131.26,900.98c-.14,0-.26-.1-.28-.25-.02-.15.09-.3.24-.32l268.34-35.31c31.11-4.09,53.1-32.74,49-63.85l-8.1-61.57c-4.13-31.42,18.07-60.35,49.49-64.48l334.74-44.04c31.11-4.09,53.1-32.74,49-63.85l-8.08-61.43c-2-15.22,2.04-30.31,11.39-42.49,9.35-12.18,22.88-19.99,38.1-21.99l334.5-44.01c15.07-1.98,28.47-9.72,37.73-21.78,9.26-12.06,13.26-27,11.28-42.07l-8-60.84c-2-15.22,2.04-30.31,11.39-42.49,9.35-12.18,22.88-19.99,38.1-21.99l297.06-39.08c.17-.03.3.09.32.24.02.15-.09.3-.24.32l-297.06,39.08c-15.07,1.98-28.47,9.72-37.73,21.78s-13.26,27-11.28,42.07l8,60.83c2,15.22-2.04,30.31-11.39,42.49-9.35,12.18-22.88,19.99-38.1,21.99l-334.5,44.01c-15.07,1.98-28.47,9.72-37.73,21.78-9.26,12.06-13.26,27-11.28,42.07l8.08,61.43c2,15.22-2.04,30.31-11.39,42.49-9.35,12.18-22.88,19.99-38.1,21.99l-334.74,44.04c-31.11,4.09-53.1,32.74-49,63.85l8.1,61.57c2,15.22-2.04,30.31-11.39,42.49-9.35,12.18-22.88,19.99-38.1,21.99l-268.34,35.31s-.02,0-.04,0Z"/>
  <path class="st14" d="M153.09,917.98c-.14,0-.26-.1-.28-.24-.02-.15.08-.3.24-.32l267.23-41.19c30.99-4.78,52.31-33.87,47.53-64.86l-9.45-61.31c-4.82-31.29,16.71-60.68,48-65.5l333.35-51.38c15.01-2.31,28.22-10.33,37.2-22.58,8.98-12.25,12.65-27.26,10.33-42.27l-9.43-61.18c-2.34-15.16,1.37-30.32,10.44-42.69s22.41-20.47,37.57-22.81l333.12-51.35c15.01-2.31,28.22-10.33,37.2-22.58,8.98-12.25,12.65-27.26,10.33-42.27l-9.34-60.58c-4.82-31.29,16.71-60.68,48-65.5l295.83-45.6c.16-.03.3.08.32.24.02.15-.08.3-.24.32l-295.83,45.6c-30.99,4.78-52.31,33.87-47.53,64.86l9.34,60.58c2.34,15.16-1.37,30.32-10.44,42.69-9.07,12.37-22.41,20.47-37.57,22.81l-333.12,51.35c-30.99,4.78-52.31,33.87-47.53,64.86l9.43,61.18c2.34,15.16-1.37,30.32-10.44,42.69s-22.41,20.47-37.57,22.81l-333.35,51.38c-30.99,4.78-52.31,33.87-47.53,64.86l9.45,61.31c4.82,31.29-16.71,60.67-48,65.5l-267.23,41.19s-.03,0-.04,0Z"/>
  <path class="st0" d="M174.92,934.97c-.13,0-.25-.1-.28-.23-.03-.15.08-.3.23-.33l266.13-47.07c30.86-5.46,51.52-35,46.06-65.86l-10.8-61.06c-2.67-15.1.7-30.33,9.48-42.89,8.79-12.56,21.94-20.95,37.04-23.62l331.97-58.72c14.95-2.64,27.97-10.95,36.67-23.39,8.7-12.44,12.03-27.52,9.39-42.47l-10.78-60.92c-5.51-31.16,15.36-61,46.52-66.51l331.74-58.68c14.95-2.64,27.97-10.95,36.67-23.39,8.7-12.44,12.03-27.52,9.39-42.47l-10.67-60.33c-5.51-31.16,15.36-61,46.52-66.51l294.6-52.11c.16-.03.3.08.33.23.03.15-.08.3-.23.33l-294.6,52.11c-30.86,5.46-51.52,35-46.06,65.86l10.67,60.33c2.67,15.1-.7,30.33-9.48,42.89-8.79,12.56-21.94,20.95-37.04,23.62l-331.74,58.68c-30.86,5.46-51.52,35-46.06,65.86l10.78,60.92c2.67,15.1-.7,30.33-9.48,42.89s-21.94,20.95-37.04,23.62l-331.97,58.72c-30.86,5.46-51.52,35-46.06,65.86l10.8,61.06c5.51,31.16-15.36,61-46.52,66.51l-266.12,47.07s-.03,0-.05,0Z"/>
  <path class="st9" d="M196.75,951.97c-.13,0-.25-.09-.28-.23-.03-.15.07-.3.22-.33l265.02-52.96c30.73-6.14,50.73-36.14,44.59-66.86l-12.15-60.81c-6.2-31.03,14-61.33,45.03-67.53l330.59-66.06c14.89-2.97,27.72-11.57,36.14-24.2,8.42-12.63,11.42-27.78,8.45-42.67l-12.12-60.67c-6.2-31.03,14-61.32,45.03-67.53l330.36-66.02c30.73-6.14,50.73-36.14,44.59-66.86l-12.01-60.08c-6.2-31.03,14-61.33,45.03-67.53l293.38-58.63c.17-.03.3.07.33.22.03.15-.07.3-.22.33l-293.38,58.63c-30.73,6.14-50.73,36.14-44.59,66.86l12.01,60.08c6.2,31.03-14,61.33-45.03,67.53l-330.36,66.02c-30.73,6.14-50.73,36.14-44.59,66.86l12.12,60.67c3,15.03-.03,30.34-8.53,43.09-8.51,12.75-21.47,21.43-36.5,24.44l-330.59,66.06c-30.73,6.14-50.73,36.14-44.59,66.86l12.15,60.81c6.2,31.03-14,61.33-45.03,67.53l-265.02,52.96s-.04,0-.06,0Z"/>
  <path class="st15" d="M218.58,968.96c-.13,0-.25-.09-.28-.22-.03-.15.06-.3.21-.34l263.91-58.84c14.82-3.3,27.47-12.18,35.62-25s10.81-28.04,7.5-42.86l-13.5-60.55c-6.89-30.9,12.65-61.65,43.55-68.54l329.21-73.4c14.82-3.3,27.47-12.18,35.62-25s10.81-28.04,7.5-42.86l-13.47-60.42c-3.34-14.97-.65-30.34,7.58-43.29,8.23-12.95,21-21.91,35.97-25.25l328.97-73.35c14.82-3.3,27.47-12.18,35.62-25,8.14-12.82,10.81-28.04,7.5-42.86l-13.34-59.83c-3.34-14.97-.65-30.34,7.58-43.29s21-21.91,35.97-25.25l292.15-65.14c.15-.03.3.06.34.21.03.15-.06.3-.21.34l-292.15,65.14c-14.82,3.3-27.47,12.18-35.62,25s-10.81,28.04-7.5,42.86l13.34,59.83c3.34,14.97.65,30.34-7.58,43.29-8.22,12.95-21,21.91-35.97,25.25l-328.97,73.35c-14.82,3.3-27.47,12.18-35.62,25s-10.81,28.04-7.5,42.86l13.47,60.42c3.34,14.97.65,30.34-7.58,43.29-8.23,12.95-21,21.91-35.97,25.25l-329.21,73.4c-30.6,6.82-49.94,37.27-43.12,67.87l13.5,60.55c6.89,30.9-12.65,61.65-43.55,68.54l-263.91,58.84s-.04,0-.06,0Z"/>
  <path class="st12" d="M240.41,985.96c-.13,0-.24-.09-.27-.21-.04-.15.05-.3.21-.34l262.8-64.73c14.76-3.64,27.22-12.8,35.09-25.81,7.87-13.01,10.2-28.3,6.56-43.06l-14.85-60.3c-3.67-14.91-1.32-30.35,6.63-43.49,7.94-13.14,20.53-22.39,35.44-26.07l327.82-80.74c30.47-7.51,49.16-38.4,41.65-68.87l-14.82-60.16c-7.58-30.77,11.29-61.97,42.06-69.55l327.59-80.69c14.76-3.64,27.22-12.8,35.09-25.81,7.87-13.01,10.2-28.3,6.56-43.06l-14.67-59.58c-7.58-30.77,11.29-61.98,42.06-69.56l290.92-71.65c.15-.04.3.06.34.21.04.15-.05.3-.21.34l-290.92,71.65c-30.47,7.5-49.16,38.4-41.65,68.87l14.67,59.58c3.67,14.91,1.32,30.35-6.63,43.49-7.94,13.14-20.53,22.39-35.44,26.07l-327.59,80.69c-30.47,7.51-49.16,38.4-41.65,68.87l14.82,60.16c3.67,14.91,1.32,30.35-6.63,43.49-7.94,13.14-20.53,22.39-35.44,26.07l-327.82,80.74c-30.47,7.51-49.16,38.4-41.65,68.87l14.85,60.3c3.67,14.91,1.32,30.35-6.63,43.49-7.94,13.14-20.53,22.39-35.44,26.07l-262.8,64.73s-.05,0-.07,0Z"/>
  <path class="st13" d="M262.24,1002.95c-.12,0-.24-.08-.27-.21-.04-.15.05-.3.2-.35l261.69-70.61c14.7-3.97,26.97-13.42,34.56-26.62,7.59-13.2,9.58-28.56,5.62-43.26l-16.2-60.04c-8.27-30.64,9.93-62.3,40.58-70.57l326.44-88.08c14.7-3.97,26.97-13.42,34.56-26.62s9.58-28.56,5.62-43.26l-16.17-59.91c-8.27-30.64,9.94-62.3,40.58-70.57l326.21-88.02c30.34-8.19,48.37-39.53,40.18-69.88l-16.01-59.33c-8.27-30.64,9.94-62.3,40.58-70.57l289.7-78.17c.15-.04.3.05.35.2.04.15-.05.3-.2.35l-289.7,78.17c-30.34,8.19-48.37,39.54-40.18,69.88l16.01,59.33c8.27,30.64-9.94,62.3-40.58,70.57l-326.21,88.02c-30.34,8.19-48.37,39.53-40.18,69.88l16.17,59.91c8.27,30.64-9.94,62.3-40.58,70.57l-326.44,88.08c-30.34,8.19-48.37,39.53-40.18,69.88l16.2,60.04c4,14.84,1.99,30.36-5.67,43.69s-20.06,22.88-34.91,26.88l-261.69,70.61s-.05,0-.07,0Z"/>
  <path class="st4" d="M284.07,1019.95c-.12,0-.23-.08-.27-.2-.04-.15.04-.31.19-.35l260.58-76.5c30.21-8.87,47.58-40.67,38.71-70.88l-17.55-59.79c-8.96-30.51,8.58-62.62,39.09-71.58l325.06-95.42c30.21-8.87,47.58-40.67,38.71-70.88l-17.51-59.66c-8.96-30.51,8.58-62.62,39.09-71.58l324.83-95.36c14.64-4.3,26.72-14.04,34.04-27.42s8.97-28.82,4.67-43.46l-17.34-59.08c-8.96-30.51,8.58-62.62,39.09-71.58l288.47-84.68c.15-.04.31.04.35.19.04.15-.04.31-.19.35l-288.47,84.68c-30.21,8.87-47.58,40.67-38.71,70.88l17.34,59.08c4.34,14.78,2.66,30.37-4.72,43.89-7.38,13.52-19.59,23.36-34.37,27.69l-324.83,95.36c-14.64,4.3-26.72,14.04-34.04,27.42-7.31,13.39-8.97,28.82-4.67,43.46l17.51,59.66c8.96,30.51-8.58,62.62-39.09,71.58l-325.06,95.42c-30.21,8.87-47.58,40.67-38.71,70.88l17.55,59.79c8.96,30.51-8.58,62.62-39.09,71.58l-260.58,76.5s-.05.01-.08.01Z"/>
  <path class="st17" d="M305.9,1036.94c-.12,0-.23-.08-.27-.2-.05-.15.03-.31.18-.35l259.48-82.38c14.57-4.63,26.47-14.65,33.51-28.23,7.03-13.58,8.36-29.08,3.73-43.66l-18.9-59.54c-9.65-30.38,7.22-62.95,37.61-72.6l323.68-102.76c14.57-4.63,26.47-14.65,33.51-28.23,7.03-13.58,8.36-29.08,3.73-43.66l-18.86-59.4c-4.67-14.72-3.33-30.38,3.77-44.09,7.1-13.71,19.12-23.84,33.84-28.51l323.45-102.69c14.57-4.63,26.47-14.65,33.51-28.23,7.03-13.58,8.36-29.08,3.73-43.66l-18.68-58.83c-4.67-14.72-3.33-30.38,3.77-44.09,7.1-13.71,19.12-23.84,33.84-28.51l287.24-91.2c.15-.05.31.03.35.18s-.04.31-.18.35l-287.24,91.2c-14.57,4.63-26.47,14.65-33.51,28.23-7.03,13.58-8.36,29.08-3.73,43.66l18.68,58.83c9.65,30.38-7.22,62.95-37.61,72.6l-323.45,102.69c-14.57,4.63-26.47,14.65-33.51,28.23-7.03,13.58-8.36,29.08-3.73,43.66l18.86,59.4c4.67,14.72,3.33,30.38-3.77,44.09-7.1,13.71-19.12,23.84-33.84,28.51l-323.68,102.76c-30.09,9.55-46.79,41.8-37.24,71.89l18.9,59.54c4.67,14.72,3.33,30.37-3.77,44.09-7.1,13.71-19.12,23.84-33.84,28.51l-259.48,82.38s-.06.01-.09.01Z"/>
  <path class="st16" d="M327.73,1053.93c-.12,0-.23-.07-.27-.19-.05-.15.03-.31.18-.36l258.37-88.27c14.51-4.96,26.23-15.27,32.98-29.04,6.76-13.77,7.75-29.34,2.79-43.86l-20.25-59.28c-5.01-14.66-4.01-30.38,2.82-44.29,6.82-13.9,18.65-24.32,33.31-29.32l322.29-110.1c14.51-4.96,26.23-15.27,32.98-29.04,6.76-13.77,7.75-29.34,2.79-43.85l-20.21-59.15c-10.33-30.25,5.87-63.27,36.12-73.61l322.07-110.03c29.96-10.24,46-42.94,35.77-72.89l-20.01-58.57c-10.33-30.25,5.87-63.27,36.12-73.61l286.02-97.71c.15-.05.31.03.36.18s-.03.31-.18.36l-286.02,97.71c-29.96,10.23-46,42.93-35.77,72.89l20.01,58.57c10.34,30.25-5.87,63.27-36.12,73.61l-322.07,110.03c-29.96,10.24-46,42.93-35.77,72.89l20.21,59.15c5.01,14.65,4.01,30.38-2.82,44.29-6.82,13.9-18.65,24.32-33.31,29.32l-322.29,110.1c-14.51,4.96-26.23,15.27-32.98,29.04-6.76,13.77-7.75,29.34-2.79,43.86l20.25,59.28c5.01,14.66,4.01,30.38-2.82,44.29-6.82,13.9-18.65,24.32-33.31,29.32l-258.37,88.27s-.06.02-.09.02Z"/>
  <path class="st7" d="M349.56,1070.93c-.11,0-.22-.07-.26-.19-.05-.15.02-.31.17-.36l257.26-94.15c29.83-10.92,45.22-44.07,34.3-73.9l-21.6-59.03c-11.02-30.12,4.51-63.6,34.64-74.62l320.91-117.44c29.83-10.92,45.22-44.07,34.3-73.9l-21.55-58.9c-11.02-30.12,4.51-63.6,34.64-74.62l320.69-117.36c29.83-10.92,45.22-44.07,34.3-73.9l-21.34-58.32c-11.02-30.12,4.51-63.6,34.64-74.62L1675.42,15.39c.15-.05.31.02.36.17s-.02.31-.17.36l-284.79,104.22c-29.83,10.92-45.22,44.07-34.3,73.9l21.34,58.32c5.34,14.59,4.68,30.39-1.86,44.48-6.54,14.09-18.18,24.8-32.77,30.14l-320.69,117.36c-29.83,10.92-45.22,44.07-34.3,73.9l21.55,58.9c5.34,14.59,4.68,30.39-1.86,44.48s-18.18,24.8-32.77,30.14l-320.91,117.44c-29.83,10.92-45.22,44.07-34.3,73.9l21.6,59.03c11.02,30.12-4.51,63.6-34.64,74.62l-257.26,94.15s-.06.02-.1.02Z"/>
  <path class="st5" d="M371.39,1087.92c-.11,0-.22-.07-.26-.18-.06-.15.02-.31.16-.37l256.15-100.03c14.39-5.62,25.73-16.5,31.93-30.65,6.2-14.15,6.52-29.86.9-44.25l-22.95-58.77c-11.71-29.99,3.16-63.92,33.15-75.63l319.53-124.79c29.7-11.6,44.43-45.2,32.83-74.9l-22.9-58.64c-5.67-14.53-5.35-30.4.91-44.68,6.26-14.29,17.71-25.28,32.24-30.95l319.3-124.7c14.39-5.62,25.73-16.5,31.93-30.65,6.2-14.15,6.52-29.86.9-44.25l-22.68-58.07c-11.71-29.99,3.16-63.92,33.15-75.64L1679.24.02c.14-.06.31.02.37.16.06.15-.02.31-.16.37l-283.56,110.74c-29.7,11.6-44.43,45.2-32.83,74.9l22.68,58.07c5.67,14.53,5.35,30.4-.91,44.68-6.26,14.29-17.71,25.28-32.24,30.95l-319.3,124.7c-29.7,11.6-44.43,45.2-32.83,74.9l22.9,58.64c11.71,29.99-3.16,63.92-33.15,75.63l-319.53,124.79c-29.7,11.6-44.43,45.2-32.83,74.9l22.95,58.77c5.67,14.53,5.35,30.4-.91,44.68-6.26,14.29-17.71,25.28-32.24,30.95l-256.15,100.03s-.07.02-.1.02Z"/>
</svg>