<?xml version="1.0" encoding="UTF-8"?>
<svg id="Capa_1" xmlns="http://www.w3.org/2000/svg" version="1.1" viewBox="0 0 2417.44 1565.96">
  <!-- Generator: Adobe Illustrator 29.4.0, SVG Export Plug-In . SVG Version: 2.1.0 Build 152)  -->
  <defs>
    <style>
      .st0 {
        fill: #768189;
      }

      .st1 {
        fill: #675787;
      }

      .st2 {
        fill: #634d87;
      }

      .st3 {
        fill: #582d85;
      }

      .st4 {
        fill: #88b68c;
      }

      .st5 {
        fill: #97e08e;
      }

      .st6 {
        fill: #6b6288;
      }

      .st7 {
        fill: #93d58d;
      }

      .st8 {
        fill: #5c3886;
      }

      .st9 {
        fill: #798c8a;
      }

      .st10 {
        fill: #6e6c88;
      }

      .st11 {
        fill: #5f4286;
      }

      .st12 {
        fill: #81a18b;
      }

      .st13 {
        fill: #84ab8b;
      }

      .st14 {
        fill: #727789;
      }

      .st15 {
        fill: #7d968a;
      }

      .st16 {
        fill: #90cb8d;
      }

      .st17 {
        fill: #8cc08c;
      }
    </style>
  </defs>
  <path class="st3" d="M395.76,1149.89H.41c-.22,0-.41-.18-.41-.41s.18-.41.41-.41h395.35c45.9,0,83.24-37.34,83.24-83.24v-90.71c0-46.35,37.71-84.05,84.05-84.05h493.71c45.9,0,83.24-37.34,83.24-83.24v-90.71c0-46.35,37.71-84.05,84.05-84.05h493.71c45.9,0,83.24-37.34,83.24-83.24v-89.71c0-46.35,37.71-84.05,84.05-84.05h438.35c.22,0,.41.18.41.41s-.18.41-.41.41h-438.35c-45.9,0-83.24,37.34-83.24,83.24v89.71c0,46.35-37.71,84.05-84.05,84.05h-493.71c-45.9,0-83.24,37.34-83.24,83.24v90.71c0,46.35-37.71,84.05-84.05,84.05h-493.71c-45.9,0-83.24,37.34-83.24,83.24v90.71c0,46.35-37.71,84.05-84.05,84.05Z"/>
  <path class="st8" d="M31.81,1174.36c-.22,0-.4-.18-.41-.4,0-.22.17-.41.4-.41l393.79-8.47c22.14-.48,42.78-9.55,58.1-25.54,15.32-15.99,23.5-37,23.02-59.14l-1.94-90.35c-.99-46.16,35.76-84.52,81.92-85.51l491.72-10.56c45.71-.98,82.1-38.97,81.12-84.69l-1.94-90.34c-.48-22.36,7.78-43.57,23.25-59.72,15.47-16.15,36.31-25.31,58.67-25.79l491.7-10.56c22.14-.48,42.78-9.55,58.1-25.54,15.32-16,23.5-37,23.02-59.14l-1.92-89.35c-.48-22.36,7.78-43.57,23.25-59.72,15.47-16.15,36.31-25.31,58.67-25.79l436.58-9.38h0c.22,0,.4.18.4.4,0,.22-.17.41-.4.41l-436.58,9.38c-22.14.48-42.78,9.55-58.1,25.54-15.32,15.99-23.5,37-23.02,59.14l1.92,89.35c.48,22.36-7.78,43.57-23.25,59.72-15.47,16.15-36.31,25.31-58.67,25.79l-491.7,10.56c-22.14.48-42.78,9.55-58.1,25.54-15.32,16-23.5,37-23.02,59.14l1.94,90.34c.99,46.16-35.76,84.52-81.92,85.51l-491.72,10.56c-45.71.98-82.1,38.97-81.12,84.69l1.94,90.35c.48,22.36-7.78,43.57-23.25,59.72-15.47,16.15-36.31,25.31-58.67,25.79l-393.79,8.47h0Z"/>
  <path class="st11" d="M63.22,1198.84c-.22,0-.4-.17-.4-.39,0-.22.16-.41.39-.42l392.22-16.94c22.05-.95,42.42-10.43,57.34-26.7,14.92-16.27,22.62-37.37,21.66-59.43l-3.89-89.99c-.96-22.27,6.81-43.58,21.88-60.01,15.07-16.43,35.63-26,57.9-26.96l489.73-21.13c22.05-.95,42.42-10.43,57.34-26.7,14.92-16.27,22.62-37.37,21.66-59.43l-3.88-89.97c-.96-22.27,6.81-43.58,21.88-60.01,15.07-16.43,35.63-26,57.9-26.96l489.7-21.12c45.53-1.96,80.97-40.6,79-86.13l-3.84-88.99c-1.98-45.97,33.81-84.99,79.78-86.98l434.8-18.75c.24,0,.41.16.42.39,0,.22-.16.41-.39.42l-434.8,18.75c-45.53,1.96-80.97,40.6-79,86.13l3.84,88.99c1.98,45.97-33.81,84.99-79.78,86.98l-489.7,21.12c-22.05.95-42.42,10.43-57.34,26.7-14.92,16.27-22.62,37.37-21.66,59.43l3.88,89.97c.96,22.27-6.81,43.58-21.88,60.01-15.07,16.43-35.63,26-57.9,26.96l-489.73,21.13c-22.05.95-42.42,10.43-57.34,26.7s-22.62,37.37-21.66,59.43l3.89,89.99c.96,22.27-6.81,43.58-21.88,60.01-15.07,16.43-35.63,26-57.9,26.96l-392.22,16.94h-.02Z"/>
  <path class="st2" d="M94.63,1223.31c-.21,0-.39-.16-.4-.38-.01-.22.15-.42.38-.43l390.65-25.41c21.96-1.43,42.06-11.32,56.58-27.86,14.52-16.54,21.73-37.75,20.31-59.71l-5.83-89.63c-2.98-45.79,31.86-85.46,77.64-88.44l487.75-31.7c45.34-2.95,79.83-42.23,76.89-87.57l-5.82-89.6c-1.44-22.18,5.84-43.6,20.51-60.3,14.67-16.7,34.96-26.7,57.14-28.14l487.69-31.67c21.96-1.43,42.06-11.32,56.58-27.86,14.52-16.54,21.73-37.75,20.31-59.71l-5.76-88.63c-1.44-22.18,5.84-43.6,20.51-60.3,14.67-16.7,34.96-26.7,57.14-28.14l433.03-28.13c.22-.01.42.15.43.38.01.22-.16.42-.38.43l-433.03,28.13c-21.96,1.43-42.06,11.32-56.58,27.86-14.52,16.54-21.73,37.75-20.31,59.71l5.76,88.63c1.44,22.18-5.84,43.6-20.51,60.3-14.67,16.7-34.96,26.7-57.14,28.14l-487.69,31.67c-21.96,1.43-42.06,11.32-56.58,27.86-14.52,16.54-21.73,37.75-20.31,59.71l5.82,89.6c2.98,45.79-31.86,85.46-77.64,88.44l-487.75,31.7c-45.34,2.95-79.83,42.23-76.89,87.57l5.83,89.63c1.44,22.18-5.84,43.59-20.51,60.3-14.67,16.7-34.96,26.7-57.14,28.14l-390.65,25.41s-.02,0-.03,0Z"/>
  <path class="st1" d="M126.04,1247.79c-.21,0-.39-.16-.4-.37-.02-.22.15-.42.37-.44l389.08-33.88c45.16-3.93,78.7-43.86,74.77-89.02l-7.77-89.27c-1.92-22.09,4.87-43.61,19.14-60.59,14.26-16.98,34.28-27.39,56.37-29.31l485.76-42.26c21.87-1.9,41.7-12.21,55.82-29.02,14.12-16.81,20.85-38.12,18.95-59.99l-7.76-89.22c-1.92-22.09,4.87-43.61,19.14-60.59,14.26-16.98,34.28-27.39,56.37-29.31l485.68-42.23c21.88-1.9,41.7-12.21,55.82-29.02,14.12-16.81,20.85-38.12,18.95-59.99l-7.68-88.27c-3.97-45.6,29.91-85.93,75.51-89.9l431.25-37.51c.22-.01.42.15.44.37s-.15.42-.37.44l-431.25,37.51c-45.16,3.93-78.7,43.86-74.77,89.02l7.68,88.27c1.92,22.09-4.87,43.61-19.14,60.59s-34.28,27.39-56.37,29.31l-485.68,42.23c-21.87,1.9-41.7,12.21-55.82,29.02s-20.85,38.12-18.95,59.99l7.76,89.22c1.92,22.09-4.87,43.61-19.14,60.59-14.26,16.98-34.28,27.39-56.37,29.31l-485.76,42.26c-21.87,1.9-41.7,12.21-55.82,29.02-14.12,16.81-20.85,38.12-18.95,59.99l7.77,89.27c3.97,45.6-29.91,85.93-75.51,89.9l-389.08,33.88s-.02,0-.04,0Z"/>
  <path class="st6" d="M157.45,1272.26c-.2,0-.38-.15-.4-.36-.02-.22.14-.42.36-.45l387.52-42.35c21.78-2.38,41.34-13.1,55.06-30.18s19.97-38.49,17.59-60.28l-9.72-88.91c-2.4-22,3.91-43.62,17.76-60.87,13.86-17.26,33.61-28.08,55.61-30.48l483.77-52.83c44.97-4.91,77.56-45.49,72.65-90.46l-9.7-88.85c-4.96-45.42,27.95-86.4,73.37-91.36l483.68-52.79c21.79-2.38,41.34-13.1,55.06-30.18,13.72-17.09,19.97-38.49,17.59-60.28l-9.6-87.91c-2.4-22,3.91-43.62,17.76-60.87,13.86-17.25,33.61-28.08,55.61-30.48l429.47-46.88c.21-.03.42.14.45.36.02.22-.14.42-.36.45l-429.47,46.88c-21.79,2.38-41.34,13.1-55.06,30.18-13.72,17.09-19.97,38.49-17.59,60.28l9.6,87.91c2.4,22-3.91,43.62-17.76,60.87-13.86,17.26-33.61,28.08-55.61,30.48l-483.68,52.79c-44.97,4.91-77.56,45.49-72.65,90.46l9.7,88.85c4.96,45.42-27.95,86.4-73.37,91.36l-483.77,52.83c-21.78,2.38-41.34,13.1-55.06,30.18s-19.97,38.49-17.59,60.28l9.72,88.91c2.4,22-3.91,43.62-17.76,60.87-13.86,17.26-33.61,28.08-55.61,30.48l-387.52,42.35s-.03,0-.04,0Z"/>
  <path class="st10" d="M188.86,1296.74c-.2,0-.38-.15-.4-.35-.03-.22.13-.43.35-.46l385.95-50.82c21.69-2.85,40.98-13.99,54.3-31.35,13.32-17.36,19.09-38.87,16.23-60.56l-11.66-88.55c-2.88-21.91,2.94-43.63,16.39-61.16,13.45-17.53,32.93-28.77,54.84-31.66l481.79-63.39c21.7-2.85,40.98-13.99,54.3-31.35,13.32-17.36,19.09-38.87,16.23-60.56l-11.63-88.48c-5.95-45.23,26-86.87,71.23-92.82l481.67-63.35c44.79-5.89,76.43-47.12,70.53-91.91l-11.52-87.55c-5.95-45.23,26-86.87,71.23-92.82l427.7-56.26c.22-.02.42.13.46.35.03.22-.13.43-.35.46l-427.7,56.26c-44.79,5.89-76.43,47.12-70.54,91.91l11.52,87.55c5.95,45.23-26,86.87-71.23,92.82l-481.67,63.35c-21.7,2.85-40.98,13.99-54.3,31.35-13.32,17.36-19.09,38.87-16.23,60.56l11.63,88.48c2.88,21.91-2.94,43.63-16.39,61.16s-32.93,28.77-54.84,31.66l-481.79,63.39c-21.69,2.85-40.98,13.99-54.3,31.35-13.32,17.36-19.09,38.87-16.23,60.56l11.66,88.55c2.88,21.91-2.94,43.63-16.39,61.16-13.45,17.53-32.93,28.77-54.84,31.66l-385.95,50.82s-.04,0-.05,0Z"/>
  <path class="st14" d="M220.27,1321.21c-.2,0-.37-.14-.4-.34-.03-.22.12-.43.34-.46l384.38-59.29c21.61-3.33,40.62-14.87,53.54-32.51s18.21-39.24,14.88-60.85l-13.6-88.19c-3.36-21.82,1.97-43.64,15.02-61.45,13.05-17.81,32.25-29.47,54.07-32.83l479.8-73.96c21.6-3.33,40.62-14.87,53.54-32.51,12.92-17.63,18.21-39.24,14.88-60.85l-13.57-88.11c-6.94-45.04,24.05-87.34,69.1-94.28l479.67-73.91c44.6-6.88,75.29-48.75,68.42-93.35l-13.44-87.19c-6.94-45.04,24.05-87.34,69.1-94.28l425.92-65.63c.22-.04.43.12.46.34.03.22-.12.43-.34.46l-425.92,65.63c-21.61,3.33-40.62,14.88-53.54,32.51-12.92,17.63-18.21,39.24-14.88,60.85l13.44,87.19c6.94,45.04-24.05,87.34-69.1,94.28l-479.67,73.91c-44.6,6.88-75.29,48.75-68.42,93.35l13.57,88.11c3.36,21.82-1.97,43.64-15.02,61.45-13.05,17.81-32.25,29.47-54.07,32.83l-479.8,73.96c-21.61,3.33-40.62,14.87-53.54,32.51s-18.21,39.24-14.88,60.85l13.6,88.19c3.36,21.82-1.97,43.64-15.02,61.45-13.05,17.81-32.25,29.47-54.07,32.83l-384.38,59.29s-.04,0-.06,0Z"/>
  <path class="st0" d="M251.67,1345.69c-.19,0-.36-.14-.4-.33-.04-.22.11-.43.33-.47l382.81-67.76c44.42-7.86,74.16-50.38,66.3-94.8l-15.55-87.83c-3.84-21.73,1-43.65,13.65-61.74,12.65-18.08,31.58-30.16,53.31-34l477.81-84.53c21.52-3.81,40.26-15.76,52.78-33.67s17.32-39.62,13.52-61.13l-15.51-87.74c-3.84-21.73,1-43.65,13.65-61.74s31.58-30.16,53.31-34l477.66-84.47c44.42-7.86,74.16-50.38,66.3-94.8l-15.36-86.83c-7.93-44.86,22.1-87.8,66.96-95.74l424.14-75.01c.22-.04.43.11.47.33.04.22-.11.43-.33.47l-424.14,75.01c-44.42,7.86-74.16,50.38-66.3,94.8l15.36,86.83c3.84,21.73-1,43.65-13.65,61.74-12.65,18.08-31.58,30.16-53.31,34l-477.66,84.47c-44.42,7.86-74.16,50.38-66.3,94.8l15.51,87.74c3.84,21.73-1,43.65-13.65,61.74-12.65,18.08-31.58,30.16-53.31,34l-477.81,84.53c-21.52,3.81-40.26,15.76-52.78,33.67-12.52,17.91-17.32,39.62-13.52,61.13l15.55,87.83c7.93,44.86-22.1,87.8-66.96,95.74l-382.81,67.76s-.05,0-.07,0Z"/>
  <path class="st9" d="M283.08,1370.16c-.19,0-.36-.13-.4-.33-.04-.22.1-.43.32-.48l381.25-76.23c44.23-8.84,73.02-52.01,64.19-96.24l-17.49-87.47c-4.32-21.64.04-43.67,12.28-62.02s30.9-30.85,52.54-35.17l475.83-95.09c44.23-8.84,73.02-52.01,64.19-96.25l-17.45-87.37c-4.32-21.64.04-43.67,12.28-62.02,12.24-18.36,30.9-30.85,52.54-35.17l475.66-95.02c21.43-4.28,39.9-16.65,52.03-34.83,12.12-18.18,16.44-39.99,12.16-61.42l-17.28-86.47c-4.32-21.64.04-43.67,12.28-62.02s30.9-30.85,52.54-35.17l422.37-84.39c.22-.05.43.1.48.32s-.1.43-.32.48l-422.37,84.39c-21.43,4.28-39.9,16.65-52.03,34.83s-16.44,39.99-12.16,61.42l17.28,86.47c4.32,21.64-.04,43.67-12.28,62.02s-30.9,30.85-52.54,35.17l-475.66,95.02c-44.23,8.84-73.02,52.01-64.19,96.24l17.45,87.37c8.93,44.67-20.15,88.27-64.82,97.2l-475.83,95.09c-21.43,4.28-39.9,16.65-52.03,34.83-12.12,18.18-16.44,39.99-12.16,61.42l17.49,87.47c8.93,44.67-20.15,88.27-64.82,97.2l-381.25,76.23s-.05,0-.08,0Z"/>
  <path class="st15" d="M314.49,1394.64c-.19,0-.35-.13-.4-.32-.05-.22.09-.44.31-.49l379.68-84.7c44.05-9.82,71.89-53.64,62.07-97.69l-19.43-87.11c-9.92-44.48,18.2-88.74,62.68-98.66l473.84-105.66c21.34-4.76,39.54-17.54,51.27-35.99,11.72-18.45,15.56-40.36,10.8-61.7l-19.39-87c-4.8-21.55-.93-43.68,10.91-62.31,11.84-18.63,30.23-31.54,51.77-36.35l473.65-105.58c21.34-4.76,39.54-17.54,51.27-35.99,11.72-18.45,15.56-40.36,10.8-61.7l-19.2-86.11c-9.92-44.48,18.2-88.74,62.69-98.66l420.59-93.76c.21-.05.43.09.48.31.05.22-.09.44-.31.48l-420.59,93.76c-44.04,9.82-71.89,53.65-62.07,97.69l19.2,86.11c4.81,21.55.93,43.68-10.91,62.31s-30.23,31.54-51.78,36.35l-473.65,105.58c-21.34,4.76-39.54,17.54-51.27,35.99-11.72,18.45-15.56,40.36-10.8,61.7l19.39,87c4.8,21.55.93,43.68-10.91,62.31s-30.23,31.54-51.77,36.35l-473.84,105.66c-44.05,9.82-71.89,53.64-62.07,97.69l19.43,87.11c9.92,44.48-18.2,88.74-62.68,98.66l-379.68,84.7s-.06.01-.09.01Z"/>
  <path class="st12" d="M345.9,1419.11c-.18,0-.35-.12-.39-.31-.05-.22.08-.44.3-.49l378.11-93.17c43.86-10.8,70.76-55.28,59.95-99.14l-21.38-86.75c-10.91-44.29,16.25-89.21,60.55-100.12l471.85-116.22c21.25-5.23,39.19-18.43,50.51-37.15,11.32-18.72,14.68-40.74,9.44-61.98l-21.33-86.63c-5.29-21.46-1.9-43.69,9.54-62.6,11.44-18.91,29.55-32.23,51.01-37.52l471.64-116.14c43.86-10.8,70.75-55.28,59.95-99.14l-21.12-85.75c-10.91-44.3,16.25-89.21,60.55-100.12l418.82-103.14c.21-.05.44.08.49.3.05.22-.08.44-.3.49l-418.82,103.14c-43.86,10.8-70.75,55.28-59.95,99.14l21.12,85.75c10.91,44.3-16.25,89.21-60.55,100.12l-471.64,116.14c-21.25,5.23-39.18,18.43-50.51,37.15-11.32,18.72-14.68,40.74-9.44,61.98l21.33,86.63c5.29,21.46,1.9,43.69-9.54,62.6-11.44,18.91-29.55,32.24-51.01,37.52l-471.85,116.22c-43.86,10.8-70.76,55.28-59.95,99.14l21.38,86.75c10.91,44.29-16.25,89.21-60.55,100.12l-378.11,93.17s-.06.01-.1.01Z"/>
  <path class="st13" d="M377.31,1443.59c-.18,0-.34-.12-.39-.3-.06-.22.07-.44.29-.5l376.54-101.64c43.68-11.79,69.62-56.91,57.84-100.58l-23.32-86.39c-5.77-21.37-2.87-43.7,8.17-62.88s28.87-32.93,50.24-38.69l469.87-126.79c21.16-5.71,38.83-19.32,49.75-38.31,10.92-19,13.8-41.11,8.09-62.27l-23.27-86.26c-5.77-21.37-2.87-43.7,8.17-62.89,11.03-19.19,28.87-32.93,50.24-38.69l469.64-126.7c43.68-11.79,69.62-56.91,57.84-100.58l-23.04-85.39c-5.77-21.37-2.87-43.7,8.17-62.89,11.03-19.19,28.88-32.93,50.24-38.69l417.04-112.52c.21-.06.44.07.5.29.06.22-.07.44-.29.5l-417.04,112.52c-21.16,5.71-38.83,19.32-49.75,38.31-10.92,19-13.79,41.11-8.09,62.27l23.04,85.39c5.77,21.37,2.87,43.7-8.17,62.89-11.03,19.19-28.88,32.93-50.24,38.69l-469.64,126.7c-21.16,5.71-38.83,19.32-49.75,38.31s-13.8,41.11-8.09,62.27l23.27,86.26c5.77,21.37,2.87,43.7-8.17,62.88s-28.87,32.93-50.24,38.69l-469.87,126.79c-21.16,5.71-38.83,19.32-49.75,38.31-10.92,19-13.8,41.11-8.09,62.27l23.32,86.39c11.9,44.11-14.3,89.68-58.41,101.58l-376.54,101.64s-.07.01-.11.01Z"/>
  <path class="st4" d="M408.72,1468.06c-.18,0-.34-.12-.39-.29-.06-.21.06-.44.27-.5l374.98-110.11c21.07-6.18,38.47-20.2,48.99-39.47,10.52-19.27,12.91-41.49,6.73-62.55l-25.26-86.03c-12.89-43.92,12.35-90.14,56.27-103.04l467.88-137.35c21.07-6.18,38.47-20.2,48.99-39.47,10.52-19.27,12.91-41.49,6.73-62.55l-25.21-85.89c-6.25-21.28-3.83-43.71,6.8-63.17,10.63-19.46,28.2-33.62,49.48-39.86l467.63-137.26c21.07-6.19,38.47-20.2,48.99-39.47,10.52-19.27,12.91-41.49,6.73-62.55l-24.96-85.03c-12.89-43.92,12.35-90.14,56.27-103.04l415.26-121.89c.21-.06.44.06.5.28.06.22-.06.44-.28.5l-415.26,121.89c-43.49,12.77-68.49,58.54-55.72,102.03l24.96,85.03c6.25,21.28,3.83,43.71-6.8,63.17s-28.2,33.62-49.47,39.86l-467.63,137.26c-21.07,6.18-38.47,20.2-48.99,39.47-10.52,19.27-12.91,41.49-6.73,62.55l25.21,85.89c6.25,21.28,3.83,43.71-6.8,63.17s-28.2,33.62-49.47,39.86l-467.88,137.35c-43.49,12.77-68.49,58.54-55.72,102.03l25.26,86.03c6.25,21.28,3.83,43.71-6.8,63.17s-28.2,33.62-49.47,39.86l-374.98,110.11s-.08.02-.11.02Z"/>
  <path class="st17" d="M440.13,1492.54c-.17,0-.33-.11-.39-.28-.07-.21.05-.44.26-.51l373.41-118.58c43.31-13.75,67.35-60.17,53.6-103.48l-27.21-85.67c-6.73-21.19-4.8-43.72,5.42-63.46s27.52-34.31,48.71-41.04l465.89-147.92c20.98-6.66,38.11-21.09,48.23-40.64,10.12-19.54,12.03-41.86,5.37-62.84l-27.15-85.52c-13.88-43.73,10.4-90.61,54.13-104.5l465.63-147.82c43.31-13.75,67.35-60.17,53.6-103.48l-26.88-84.67c-6.73-21.19-4.8-43.72,5.42-63.46,10.22-19.74,27.52-34.31,48.71-41.04l413.49-131.27c.22-.07.44.05.51.26.07.21-.05.44-.26.51l-413.49,131.27c-20.98,6.66-38.11,21.09-48.23,40.64-10.12,19.54-12.03,41.86-5.37,62.84l26.88,84.67c13.88,43.73-10.4,90.61-54.13,104.5l-465.63,147.82c-43.31,13.75-67.35,60.17-53.6,103.48l27.15,85.52c6.73,21.19,4.8,43.72-5.42,63.46-10.22,19.74-27.52,34.31-48.71,41.04l-465.89,147.92c-20.98,6.66-38.11,21.09-48.23,40.64-10.12,19.54-12.03,41.86-5.37,62.84l27.21,85.67c13.88,43.73-10.4,90.61-54.13,104.5l-373.41,118.58s-.08.02-.12.02Z"/>
  <path class="st16" d="M471.54,1517.01c-.17,0-.33-.11-.38-.28-.07-.21.04-.44.25-.51l371.84-127.05c43.12-14.73,66.22-61.8,51.49-104.92l-29.15-85.32c-14.88-43.55,8.45-91.08,51.99-105.95l463.9-158.48c43.12-14.73,66.22-61.8,51.49-104.92l-29.09-85.15c-14.88-43.55,8.45-91.08,51.99-105.95l463.62-158.37c43.12-14.73,66.22-61.8,51.49-104.92l-28.8-84.31c-7.21-21.09-5.77-43.73,4.05-63.75,9.82-20.01,26.85-35,47.94-42.21l411.71-140.65c.21-.07.44.04.51.25.07.21-.04.44-.25.52l-411.71,140.65c-20.89,7.14-37.75,21.98-47.47,41.8-9.72,19.82-11.15,42.24-4.01,63.12l28.8,84.31c7.21,21.09,5.77,43.73-4.05,63.75-9.82,20.01-26.85,35-47.94,42.21l-463.62,158.37c-43.12,14.73-66.22,61.8-51.49,104.92l29.09,85.15c7.21,21.09,5.77,43.73-4.05,63.75s-26.85,35-47.94,42.21l-463.9,158.48c-43.12,14.73-66.22,61.8-51.49,104.92l29.15,85.32c14.88,43.55-8.45,91.08-51.99,105.95l-371.84,127.05s-.09.02-.13.02Z"/>
  <path class="st7" d="M502.94,1541.49c-.17,0-.32-.1-.38-.27-.08-.21.03-.44.24-.52l370.27-135.52c20.8-7.61,37.39-22.87,46.72-42.96,9.33-20.09,10.27-42.61,2.66-63.41l-31.09-84.96c-7.69-21-6.73-43.74,2.68-64.03,9.42-20.29,26.17-35.69,47.17-43.38l461.92-169.05c42.94-15.71,65.09-63.43,49.37-106.37l-31.03-84.78c-7.69-21-6.73-43.74,2.68-64.03,9.42-20.29,26.17-35.69,47.17-43.38l461.62-168.93c20.8-7.61,37.39-22.87,46.72-42.96s10.27-42.61,2.66-63.41l-30.72-83.95c-15.87-43.36,6.5-91.54,49.86-107.41l409.94-150.02c.21-.08.44.03.52.24.08.21-.03.44-.24.52l-409.94,150.02c-42.94,15.71-65.09,63.43-49.37,106.37l30.72,83.95c7.69,21,6.74,43.74-2.68,64.03-9.42,20.29-26.17,35.69-47.17,43.38l-461.62,168.93c-20.8,7.61-37.39,22.87-46.72,42.96s-10.27,42.61-2.66,63.41l31.03,84.78c15.87,43.36-6.5,91.54-49.86,107.41l-461.92,169.05c-20.8,7.61-37.39,22.87-46.72,42.96-9.33,20.09-10.27,42.61-2.66,63.41l31.09,84.96c7.69,21,6.73,43.74-2.68,64.03s-26.17,35.69-47.17,43.38l-370.27,135.52s-.09.03-.14.03Z"/>
  <path class="st5" d="M534.35,1565.96c-.16,0-.32-.1-.38-.26-.08-.21.02-.44.23-.53l368.71-143.99c20.71-8.09,37.03-23.76,45.96-44.12,8.93-20.36,9.39-42.99,1.3-63.7l-33.04-84.6c-8.17-20.91-7.7-43.75,1.31-64.32s25.49-36.38,46.41-44.55l459.93-179.62c20.71-8.09,37.03-23.76,45.96-44.12,8.93-20.36,9.39-42.99,1.3-63.7l-32.96-84.41c-16.86-43.17,4.55-92.01,47.72-108.87l459.61-179.49c42.75-16.7,63.95-65.06,47.26-107.82l-32.64-83.59c-16.86-43.17,4.55-92.01,47.72-108.87L2416.89.03c.21-.08.44.02.53.23.08.21-.02.44-.23.53l-408.16,159.4c-42.75,16.7-63.95,65.06-47.26,107.82l32.64,83.59c16.86,43.17-4.55,92.01-47.72,108.87l-459.61,179.49c-42.75,16.7-63.95,65.06-47.26,107.82l32.96,84.41c8.17,20.91,7.7,43.75-1.31,64.32s-25.49,36.38-46.41,44.55l-459.93,179.62c-20.71,8.09-37.03,23.76-45.96,44.12-8.93,20.36-9.39,42.99-1.3,63.7l33.04,84.6c8.17,20.91,7.7,43.75-1.31,64.32-9.01,20.56-25.49,36.38-46.41,44.55l-368.71,143.99s-.1.03-.15.03Z"/>
</svg>